%TF.GenerationSoftware,KiCad,Pcbnew,(5.1.9)-1*%
%TF.CreationDate,2021-03-21T16:20:23+00:00*%
%TF.ProjectId,hp5354a-ocxo,68703533-3534-4612-9d6f-63786f2e6b69,rev?*%
%TF.SameCoordinates,Original*%
%TF.FileFunction,Legend,Bot*%
%TF.FilePolarity,Positive*%
%FSLAX46Y46*%
G04 Gerber Fmt 4.6, Leading zero omitted, Abs format (unit mm)*
G04 Created by KiCad (PCBNEW (5.1.9)-1) date 2021-03-21 16:20:23*
%MOMM*%
%LPD*%
G01*
G04 APERTURE LIST*
%ADD10C,0.120000*%
%ADD11C,0.150000*%
G04 APERTURE END LIST*
D10*
%TO.C,L1*%
X105696248Y-96960000D02*
X108468752Y-96960000D01*
X105696248Y-93540000D02*
X108468752Y-93540000D01*
%TO.C,J4*%
X96460000Y-106740000D02*
X97790000Y-106740000D01*
X96460000Y-105410000D02*
X96460000Y-106740000D01*
X96460000Y-104140000D02*
X99120000Y-104140000D01*
X99120000Y-104140000D02*
X99120000Y-104080000D01*
X96460000Y-104140000D02*
X96460000Y-104080000D01*
X96460000Y-104080000D02*
X99120000Y-104080000D01*
%TO.C,U1*%
X127145000Y-103500000D02*
X128605000Y-103500000D01*
X127145000Y-100340000D02*
X129305000Y-100340000D01*
X127145000Y-100340000D02*
X127145000Y-101270000D01*
X127145000Y-103500000D02*
X127145000Y-102570000D01*
%TO.C,J3*%
X134560000Y-99120000D02*
X135890000Y-99120000D01*
X134560000Y-97790000D02*
X134560000Y-99120000D01*
X134560000Y-96520000D02*
X137220000Y-96520000D01*
X137220000Y-96520000D02*
X137220000Y-96460000D01*
X134560000Y-96520000D02*
X134560000Y-96460000D01*
X134560000Y-96460000D02*
X137220000Y-96460000D01*
%TO.C,J2*%
X96460000Y-99120000D02*
X97790000Y-99120000D01*
X96460000Y-97790000D02*
X96460000Y-99120000D01*
X96460000Y-96520000D02*
X99120000Y-96520000D01*
X99120000Y-96520000D02*
X99120000Y-96460000D01*
X96460000Y-96520000D02*
X96460000Y-96460000D01*
X96460000Y-96460000D02*
X99120000Y-96460000D01*
%TO.C,J1*%
X96460000Y-91500000D02*
X97790000Y-91500000D01*
X96460000Y-90170000D02*
X96460000Y-91500000D01*
X96460000Y-88900000D02*
X99120000Y-88900000D01*
X99120000Y-88900000D02*
X99120000Y-88840000D01*
X96460000Y-88900000D02*
X96460000Y-88840000D01*
X96460000Y-88840000D02*
X99120000Y-88840000D01*
%TO.C,C6*%
X131345000Y-102181252D02*
X131345000Y-101658748D01*
X132815000Y-102181252D02*
X132815000Y-101658748D01*
%TO.C,C5*%
X130228748Y-97690000D02*
X130751252Y-97690000D01*
X130228748Y-99160000D02*
X130751252Y-99160000D01*
%TO.C,C4*%
X131545000Y-106733748D02*
X131545000Y-107256252D01*
X130075000Y-106733748D02*
X130075000Y-107256252D01*
%TO.C,C3*%
X111025000Y-93291252D02*
X111025000Y-92768748D01*
X112495000Y-93291252D02*
X112495000Y-92768748D01*
%TO.C,C2*%
X101500000Y-93291252D02*
X101500000Y-92768748D01*
X102970000Y-93291252D02*
X102970000Y-92768748D01*
%TO.C,C1*%
X107896252Y-92810000D02*
X107373748Y-92810000D01*
X107896252Y-91340000D02*
X107373748Y-91340000D01*
%TO.C,L1*%
D11*
X107249166Y-98352380D02*
X107725357Y-98352380D01*
X107725357Y-97352380D01*
X106392023Y-98352380D02*
X106963452Y-98352380D01*
X106677738Y-98352380D02*
X106677738Y-97352380D01*
X106772976Y-97495238D01*
X106868214Y-97590476D01*
X106963452Y-97638095D01*
%TO.C,U1*%
X126761904Y-102952380D02*
X126761904Y-103761904D01*
X126714285Y-103857142D01*
X126666666Y-103904761D01*
X126571428Y-103952380D01*
X126380952Y-103952380D01*
X126285714Y-103904761D01*
X126238095Y-103857142D01*
X126190476Y-103761904D01*
X126190476Y-102952380D01*
X125190476Y-103952380D02*
X125761904Y-103952380D01*
X125476190Y-103952380D02*
X125476190Y-102952380D01*
X125571428Y-103095238D01*
X125666666Y-103190476D01*
X125761904Y-103238095D01*
%TO.C,C6*%
X134416666Y-101107142D02*
X134464285Y-101154761D01*
X134607142Y-101202380D01*
X134702380Y-101202380D01*
X134845238Y-101154761D01*
X134940476Y-101059523D01*
X134988095Y-100964285D01*
X135035714Y-100773809D01*
X135035714Y-100630952D01*
X134988095Y-100440476D01*
X134940476Y-100345238D01*
X134845238Y-100250000D01*
X134702380Y-100202380D01*
X134607142Y-100202380D01*
X134464285Y-100250000D01*
X134416666Y-100297619D01*
X133559523Y-100202380D02*
X133750000Y-100202380D01*
X133845238Y-100250000D01*
X133892857Y-100297619D01*
X133988095Y-100440476D01*
X134035714Y-100630952D01*
X134035714Y-101011904D01*
X133988095Y-101107142D01*
X133940476Y-101154761D01*
X133845238Y-101202380D01*
X133654761Y-101202380D01*
X133559523Y-101154761D01*
X133511904Y-101107142D01*
X133464285Y-101011904D01*
X133464285Y-100773809D01*
X133511904Y-100678571D01*
X133559523Y-100630952D01*
X133654761Y-100583333D01*
X133845238Y-100583333D01*
X133940476Y-100630952D01*
X133988095Y-100678571D01*
X134035714Y-100773809D01*
%TO.C,C5*%
X131666666Y-96857142D02*
X131714285Y-96904761D01*
X131857142Y-96952380D01*
X131952380Y-96952380D01*
X132095238Y-96904761D01*
X132190476Y-96809523D01*
X132238095Y-96714285D01*
X132285714Y-96523809D01*
X132285714Y-96380952D01*
X132238095Y-96190476D01*
X132190476Y-96095238D01*
X132095238Y-96000000D01*
X131952380Y-95952380D01*
X131857142Y-95952380D01*
X131714285Y-96000000D01*
X131666666Y-96047619D01*
X130761904Y-95952380D02*
X131238095Y-95952380D01*
X131285714Y-96428571D01*
X131238095Y-96380952D01*
X131142857Y-96333333D01*
X130904761Y-96333333D01*
X130809523Y-96380952D01*
X130761904Y-96428571D01*
X130714285Y-96523809D01*
X130714285Y-96761904D01*
X130761904Y-96857142D01*
X130809523Y-96904761D01*
X130904761Y-96952380D01*
X131142857Y-96952380D01*
X131238095Y-96904761D01*
X131285714Y-96857142D01*
%TO.C,C4*%
X133166666Y-108607142D02*
X133214285Y-108654761D01*
X133357142Y-108702380D01*
X133452380Y-108702380D01*
X133595238Y-108654761D01*
X133690476Y-108559523D01*
X133738095Y-108464285D01*
X133785714Y-108273809D01*
X133785714Y-108130952D01*
X133738095Y-107940476D01*
X133690476Y-107845238D01*
X133595238Y-107750000D01*
X133452380Y-107702380D01*
X133357142Y-107702380D01*
X133214285Y-107750000D01*
X133166666Y-107797619D01*
X132309523Y-108035714D02*
X132309523Y-108702380D01*
X132547619Y-107654761D02*
X132785714Y-108369047D01*
X132166666Y-108369047D01*
%TO.C,C3*%
X114166666Y-93607142D02*
X114214285Y-93654761D01*
X114357142Y-93702380D01*
X114452380Y-93702380D01*
X114595238Y-93654761D01*
X114690476Y-93559523D01*
X114738095Y-93464285D01*
X114785714Y-93273809D01*
X114785714Y-93130952D01*
X114738095Y-92940476D01*
X114690476Y-92845238D01*
X114595238Y-92750000D01*
X114452380Y-92702380D01*
X114357142Y-92702380D01*
X114214285Y-92750000D01*
X114166666Y-92797619D01*
X113833333Y-92702380D02*
X113214285Y-92702380D01*
X113547619Y-93083333D01*
X113404761Y-93083333D01*
X113309523Y-93130952D01*
X113261904Y-93178571D01*
X113214285Y-93273809D01*
X113214285Y-93511904D01*
X113261904Y-93607142D01*
X113309523Y-93654761D01*
X113404761Y-93702380D01*
X113690476Y-93702380D01*
X113785714Y-93654761D01*
X113833333Y-93607142D01*
%TO.C,C2*%
X102666666Y-90857142D02*
X102714285Y-90904761D01*
X102857142Y-90952380D01*
X102952380Y-90952380D01*
X103095238Y-90904761D01*
X103190476Y-90809523D01*
X103238095Y-90714285D01*
X103285714Y-90523809D01*
X103285714Y-90380952D01*
X103238095Y-90190476D01*
X103190476Y-90095238D01*
X103095238Y-90000000D01*
X102952380Y-89952380D01*
X102857142Y-89952380D01*
X102714285Y-90000000D01*
X102666666Y-90047619D01*
X102285714Y-90047619D02*
X102238095Y-90000000D01*
X102142857Y-89952380D01*
X101904761Y-89952380D01*
X101809523Y-90000000D01*
X101761904Y-90047619D01*
X101714285Y-90142857D01*
X101714285Y-90238095D01*
X101761904Y-90380952D01*
X102333333Y-90952380D01*
X101714285Y-90952380D01*
%TO.C,C1*%
X105166666Y-92357142D02*
X105214285Y-92404761D01*
X105357142Y-92452380D01*
X105452380Y-92452380D01*
X105595238Y-92404761D01*
X105690476Y-92309523D01*
X105738095Y-92214285D01*
X105785714Y-92023809D01*
X105785714Y-91880952D01*
X105738095Y-91690476D01*
X105690476Y-91595238D01*
X105595238Y-91500000D01*
X105452380Y-91452380D01*
X105357142Y-91452380D01*
X105214285Y-91500000D01*
X105166666Y-91547619D01*
X104214285Y-92452380D02*
X104785714Y-92452380D01*
X104500000Y-92452380D02*
X104500000Y-91452380D01*
X104595238Y-91595238D01*
X104690476Y-91690476D01*
X104785714Y-91738095D01*
%TD*%
M02*
