M48
; DRILL file {KiCad (5.1.9)-1} date 03/21/21 16:20:28
; FORMAT={-:-/ absolute / inch / decimal}
; #@! TF.CreationDate,2021-03-21T16:20:28+00:00
; #@! TF.GenerationSoftware,Kicad,Pcbnew,(5.1.9)-1
; #@! TF.FileFunction,Plated,1,2,PTH
FMAT,2
INCH
T1C0.0157
T2C0.0315
T3C0.0394
T4C0.0433
%
G90
G05
T1
X3.937Y-3.3465
X3.937Y-3.5433
X3.937Y-3.937
X3.937Y-4.3307
X4.1339Y-3.3465
X4.1339Y-3.5433
X4.1339Y-3.937
X4.1339Y-4.3307
X4.3307Y-3.3465
X4.3307Y-3.937
X4.3307Y-4.1339
X4.3307Y-4.3307
X4.5276Y-3.3465
X4.5276Y-3.5433
X4.5276Y-3.7402
X4.5276Y-3.937
X4.5276Y-4.1339
X4.5276Y-4.3307
X4.7244Y-3.3465
X4.7244Y-3.5433
X4.7244Y-3.7402
X4.7244Y-3.937
X4.7244Y-4.1339
X4.7244Y-4.3307
X4.9213Y-3.3465
X4.9213Y-3.7402
X4.9213Y-3.937
X4.9213Y-4.1339
X4.9213Y-4.3307
X5.1181Y-3.3465
X5.1181Y-3.5433
X5.1181Y-3.7402
X5.1181Y-4.3307
X5.315Y-3.3465
X5.315Y-3.5433
X5.315Y-3.7402
X5.315Y-3.937
X5.315Y-4.1339
X5.315Y-4.3307
T2
X5.25Y-4.15
X5.35Y-4.05
X5.35Y-4.25
T3
X3.85Y-3.55
X3.85Y-3.85
X3.85Y-4.15
X5.35Y-3.85
T4
X4.225Y-3.475
X4.225Y-4.225
X4.6Y-4.225
X4.975Y-3.475
X4.975Y-4.225
T0
M30
