%TF.GenerationSoftware,KiCad,Pcbnew,(5.1.9)-1*%
%TF.CreationDate,2021-03-21T16:20:23+00:00*%
%TF.ProjectId,hp5354a-ocxo,68703533-3534-4612-9d6f-63786f2e6b69,rev?*%
%TF.SameCoordinates,Original*%
%TF.FileFunction,Legend,Top*%
%TF.FilePolarity,Positive*%
%FSLAX46Y46*%
G04 Gerber Fmt 4.6, Leading zero omitted, Abs format (unit mm)*
G04 Created by KiCad (PCBNEW (5.1.9)-1) date 2021-03-21 16:20:23*
%MOMM*%
%LPD*%
G01*
G04 APERTURE LIST*
%ADD10C,0.150000*%
%ADD11C,0.120000*%
G04 APERTURE END LIST*
D10*
X101535714Y-108559523D02*
X102345238Y-108559523D01*
X102440476Y-108607142D01*
X102488095Y-108654761D01*
X102535714Y-108750000D01*
X102535714Y-108892857D01*
X102488095Y-108988095D01*
X102154761Y-108559523D02*
X102202380Y-108654761D01*
X102202380Y-108845238D01*
X102154761Y-108940476D01*
X102107142Y-108988095D01*
X102011904Y-109035714D01*
X101726190Y-109035714D01*
X101630952Y-108988095D01*
X101583333Y-108940476D01*
X101535714Y-108845238D01*
X101535714Y-108654761D01*
X101583333Y-108559523D01*
X102202380Y-108083333D02*
X101535714Y-108083333D01*
X101202380Y-108083333D02*
X101250000Y-108130952D01*
X101297619Y-108083333D01*
X101250000Y-108035714D01*
X101202380Y-108083333D01*
X101297619Y-108083333D01*
X101535714Y-107750000D02*
X101535714Y-107369047D01*
X101202380Y-107607142D02*
X102059523Y-107607142D01*
X102154761Y-107559523D01*
X102202380Y-107464285D01*
X102202380Y-107369047D01*
X102202380Y-107035714D02*
X101202380Y-107035714D01*
X102202380Y-106607142D02*
X101678571Y-106607142D01*
X101583333Y-106654761D01*
X101535714Y-106750000D01*
X101535714Y-106892857D01*
X101583333Y-106988095D01*
X101630952Y-107035714D01*
X101535714Y-105702380D02*
X102202380Y-105702380D01*
X101535714Y-106130952D02*
X102059523Y-106130952D01*
X102154761Y-106083333D01*
X102202380Y-105988095D01*
X102202380Y-105845238D01*
X102154761Y-105750000D01*
X102107142Y-105702380D01*
X102202380Y-105226190D02*
X101202380Y-105226190D01*
X101583333Y-105226190D02*
X101535714Y-105130952D01*
X101535714Y-104940476D01*
X101583333Y-104845238D01*
X101630952Y-104797619D01*
X101726190Y-104750000D01*
X102011904Y-104750000D01*
X102107142Y-104797619D01*
X102154761Y-104845238D01*
X102202380Y-104940476D01*
X102202380Y-105130952D01*
X102154761Y-105226190D01*
X102107142Y-104321428D02*
X102154761Y-104273809D01*
X102202380Y-104321428D01*
X102154761Y-104369047D01*
X102107142Y-104321428D01*
X102202380Y-104321428D01*
X102154761Y-103416666D02*
X102202380Y-103511904D01*
X102202380Y-103702380D01*
X102154761Y-103797619D01*
X102107142Y-103845238D01*
X102011904Y-103892857D01*
X101726190Y-103892857D01*
X101630952Y-103845238D01*
X101583333Y-103797619D01*
X101535714Y-103702380D01*
X101535714Y-103511904D01*
X101583333Y-103416666D01*
X102202380Y-102845238D02*
X102154761Y-102940476D01*
X102107142Y-102988095D01*
X102011904Y-103035714D01*
X101726190Y-103035714D01*
X101630952Y-102988095D01*
X101583333Y-102940476D01*
X101535714Y-102845238D01*
X101535714Y-102702380D01*
X101583333Y-102607142D01*
X101630952Y-102559523D01*
X101726190Y-102511904D01*
X102011904Y-102511904D01*
X102107142Y-102559523D01*
X102154761Y-102607142D01*
X102202380Y-102702380D01*
X102202380Y-102845238D01*
X102202380Y-102083333D02*
X101535714Y-102083333D01*
X101630952Y-102083333D02*
X101583333Y-102035714D01*
X101535714Y-101940476D01*
X101535714Y-101797619D01*
X101583333Y-101702380D01*
X101678571Y-101654761D01*
X102202380Y-101654761D01*
X101678571Y-101654761D02*
X101583333Y-101607142D01*
X101535714Y-101511904D01*
X101535714Y-101369047D01*
X101583333Y-101273809D01*
X101678571Y-101226190D01*
X102202380Y-101226190D01*
X101154761Y-100035714D02*
X102440476Y-100892857D01*
X102154761Y-99273809D02*
X102202380Y-99369047D01*
X102202380Y-99559523D01*
X102154761Y-99654761D01*
X102107142Y-99702380D01*
X102011904Y-99750000D01*
X101726190Y-99750000D01*
X101630952Y-99702380D01*
X101583333Y-99654761D01*
X101535714Y-99559523D01*
X101535714Y-99369047D01*
X101583333Y-99273809D01*
X101535714Y-98845238D02*
X102392857Y-98845238D01*
X102488095Y-98892857D01*
X102535714Y-98988095D01*
X102535714Y-99035714D01*
X101202380Y-98845238D02*
X101250000Y-98892857D01*
X101297619Y-98845238D01*
X101250000Y-98797619D01*
X101202380Y-98845238D01*
X101297619Y-98845238D01*
X102154761Y-98416666D02*
X102202380Y-98321428D01*
X102202380Y-98130952D01*
X102154761Y-98035714D01*
X102059523Y-97988095D01*
X102011904Y-97988095D01*
X101916666Y-98035714D01*
X101869047Y-98130952D01*
X101869047Y-98273809D01*
X101821428Y-98369047D01*
X101726190Y-98416666D01*
X101678571Y-98416666D01*
X101583333Y-98369047D01*
X101535714Y-98273809D01*
X101535714Y-98130952D01*
X101583333Y-98035714D01*
X102202380Y-97559523D02*
X101535714Y-97559523D01*
X101630952Y-97559523D02*
X101583333Y-97511904D01*
X101535714Y-97416666D01*
X101535714Y-97273809D01*
X101583333Y-97178571D01*
X101678571Y-97130952D01*
X102202380Y-97130952D01*
X101678571Y-97130952D02*
X101583333Y-97083333D01*
X101535714Y-96988095D01*
X101535714Y-96845238D01*
X101583333Y-96750000D01*
X101678571Y-96702380D01*
X102202380Y-96702380D01*
X102202380Y-96226190D02*
X101535714Y-96226190D01*
X101202380Y-96226190D02*
X101250000Y-96273809D01*
X101297619Y-96226190D01*
X101250000Y-96178571D01*
X101202380Y-96226190D01*
X101297619Y-96226190D01*
X101535714Y-95892857D02*
X101535714Y-95511904D01*
X101202380Y-95750000D02*
X102059523Y-95750000D01*
X102154761Y-95702380D01*
X102202380Y-95607142D01*
X102202380Y-95511904D01*
X102202380Y-95178571D02*
X101202380Y-95178571D01*
X102202380Y-94750000D02*
X101678571Y-94750000D01*
X101583333Y-94797619D01*
X101535714Y-94892857D01*
X101535714Y-95035714D01*
X101583333Y-95130952D01*
X101630952Y-95178571D01*
X101535714Y-93845238D02*
X102202380Y-93845238D01*
X101535714Y-94273809D02*
X102059523Y-94273809D01*
X102154761Y-94226190D01*
X102202380Y-94130952D01*
X102202380Y-93988095D01*
X102154761Y-93892857D01*
X102107142Y-93845238D01*
X102202380Y-93369047D02*
X101202380Y-93369047D01*
X101821428Y-93273809D02*
X102202380Y-92988095D01*
X101535714Y-92988095D02*
X101916666Y-93369047D01*
X101154761Y-91845238D02*
X102440476Y-92702380D01*
X102202380Y-91511904D02*
X101202380Y-91511904D01*
X102202380Y-91083333D02*
X101678571Y-91083333D01*
X101583333Y-91130952D01*
X101535714Y-91226190D01*
X101535714Y-91369047D01*
X101583333Y-91464285D01*
X101630952Y-91511904D01*
X101535714Y-90607142D02*
X102535714Y-90607142D01*
X101583333Y-90607142D02*
X101535714Y-90511904D01*
X101535714Y-90321428D01*
X101583333Y-90226190D01*
X101630952Y-90178571D01*
X101726190Y-90130952D01*
X102011904Y-90130952D01*
X102107142Y-90178571D01*
X102154761Y-90226190D01*
X102202380Y-90321428D01*
X102202380Y-90511904D01*
X102154761Y-90607142D01*
X101202380Y-89226190D02*
X101202380Y-89702380D01*
X101678571Y-89750000D01*
X101630952Y-89702380D01*
X101583333Y-89607142D01*
X101583333Y-89369047D01*
X101630952Y-89273809D01*
X101678571Y-89226190D01*
X101773809Y-89178571D01*
X102011904Y-89178571D01*
X102107142Y-89226190D01*
X102154761Y-89273809D01*
X102202380Y-89369047D01*
X102202380Y-89607142D01*
X102154761Y-89702380D01*
X102107142Y-89750000D01*
X101202380Y-88845238D02*
X101202380Y-88226190D01*
X101583333Y-88559523D01*
X101583333Y-88416666D01*
X101630952Y-88321428D01*
X101678571Y-88273809D01*
X101773809Y-88226190D01*
X102011904Y-88226190D01*
X102107142Y-88273809D01*
X102154761Y-88321428D01*
X102202380Y-88416666D01*
X102202380Y-88702380D01*
X102154761Y-88797619D01*
X102107142Y-88845238D01*
X101630952Y-87654761D02*
X101583333Y-87750000D01*
X101535714Y-87797619D01*
X101440476Y-87845238D01*
X101392857Y-87845238D01*
X101297619Y-87797619D01*
X101250000Y-87750000D01*
X101202380Y-87654761D01*
X101202380Y-87464285D01*
X101250000Y-87369047D01*
X101297619Y-87321428D01*
X101392857Y-87273809D01*
X101440476Y-87273809D01*
X101535714Y-87321428D01*
X101583333Y-87369047D01*
X101630952Y-87464285D01*
X101630952Y-87654761D01*
X101678571Y-87750000D01*
X101726190Y-87797619D01*
X101821428Y-87845238D01*
X102011904Y-87845238D01*
X102107142Y-87797619D01*
X102154761Y-87750000D01*
X102202380Y-87654761D01*
X102202380Y-87464285D01*
X102154761Y-87369047D01*
X102107142Y-87321428D01*
X102011904Y-87273809D01*
X101821428Y-87273809D01*
X101726190Y-87321428D01*
X101678571Y-87369047D01*
X101630952Y-87464285D01*
X102202380Y-86940476D02*
X101535714Y-86416666D01*
X101535714Y-86940476D02*
X102202380Y-86416666D01*
X130702380Y-88727380D02*
X130702380Y-87727380D01*
X130702380Y-88203571D02*
X131273809Y-88203571D01*
X131273809Y-88727380D02*
X131273809Y-87727380D01*
X131750000Y-88727380D02*
X131750000Y-87727380D01*
X132130952Y-87727380D01*
X132226190Y-87775000D01*
X132273809Y-87822619D01*
X132321428Y-87917857D01*
X132321428Y-88060714D01*
X132273809Y-88155952D01*
X132226190Y-88203571D01*
X132130952Y-88251190D01*
X131750000Y-88251190D01*
X133226190Y-87727380D02*
X132750000Y-87727380D01*
X132702380Y-88203571D01*
X132750000Y-88155952D01*
X132845238Y-88108333D01*
X133083333Y-88108333D01*
X133178571Y-88155952D01*
X133226190Y-88203571D01*
X133273809Y-88298809D01*
X133273809Y-88536904D01*
X133226190Y-88632142D01*
X133178571Y-88679761D01*
X133083333Y-88727380D01*
X132845238Y-88727380D01*
X132750000Y-88679761D01*
X132702380Y-88632142D01*
X133607142Y-87727380D02*
X134226190Y-87727380D01*
X133892857Y-88108333D01*
X134035714Y-88108333D01*
X134130952Y-88155952D01*
X134178571Y-88203571D01*
X134226190Y-88298809D01*
X134226190Y-88536904D01*
X134178571Y-88632142D01*
X134130952Y-88679761D01*
X134035714Y-88727380D01*
X133750000Y-88727380D01*
X133654761Y-88679761D01*
X133607142Y-88632142D01*
X134797619Y-88155952D02*
X134702380Y-88108333D01*
X134654761Y-88060714D01*
X134607142Y-87965476D01*
X134607142Y-87917857D01*
X134654761Y-87822619D01*
X134702380Y-87775000D01*
X134797619Y-87727380D01*
X134988095Y-87727380D01*
X135083333Y-87775000D01*
X135130952Y-87822619D01*
X135178571Y-87917857D01*
X135178571Y-87965476D01*
X135130952Y-88060714D01*
X135083333Y-88108333D01*
X134988095Y-88155952D01*
X134797619Y-88155952D01*
X134702380Y-88203571D01*
X134654761Y-88251190D01*
X134607142Y-88346428D01*
X134607142Y-88536904D01*
X134654761Y-88632142D01*
X134702380Y-88679761D01*
X134797619Y-88727380D01*
X134988095Y-88727380D01*
X135083333Y-88679761D01*
X135130952Y-88632142D01*
X135178571Y-88536904D01*
X135178571Y-88346428D01*
X135130952Y-88251190D01*
X135083333Y-88203571D01*
X134988095Y-88155952D01*
X135511904Y-88727380D02*
X136035714Y-88060714D01*
X135511904Y-88060714D02*
X136035714Y-88727380D01*
X136369047Y-88441666D02*
X136845238Y-88441666D01*
X136273809Y-88727380D02*
X136607142Y-87727380D01*
X136940476Y-88727380D01*
X132154761Y-89377380D02*
X132345238Y-89377380D01*
X132440476Y-89425000D01*
X132535714Y-89520238D01*
X132583333Y-89710714D01*
X132583333Y-90044047D01*
X132535714Y-90234523D01*
X132440476Y-90329761D01*
X132345238Y-90377380D01*
X132154761Y-90377380D01*
X132059523Y-90329761D01*
X131964285Y-90234523D01*
X131916666Y-90044047D01*
X131916666Y-89710714D01*
X131964285Y-89520238D01*
X132059523Y-89425000D01*
X132154761Y-89377380D01*
X133583333Y-90282142D02*
X133535714Y-90329761D01*
X133392857Y-90377380D01*
X133297619Y-90377380D01*
X133154761Y-90329761D01*
X133059523Y-90234523D01*
X133011904Y-90139285D01*
X132964285Y-89948809D01*
X132964285Y-89805952D01*
X133011904Y-89615476D01*
X133059523Y-89520238D01*
X133154761Y-89425000D01*
X133297619Y-89377380D01*
X133392857Y-89377380D01*
X133535714Y-89425000D01*
X133583333Y-89472619D01*
X133916666Y-89377380D02*
X134583333Y-90377380D01*
X134583333Y-89377380D02*
X133916666Y-90377380D01*
X135154761Y-89377380D02*
X135345238Y-89377380D01*
X135440476Y-89425000D01*
X135535714Y-89520238D01*
X135583333Y-89710714D01*
X135583333Y-90044047D01*
X135535714Y-90234523D01*
X135440476Y-90329761D01*
X135345238Y-90377380D01*
X135154761Y-90377380D01*
X135059523Y-90329761D01*
X134964285Y-90234523D01*
X134916666Y-90044047D01*
X134916666Y-89710714D01*
X134964285Y-89520238D01*
X135059523Y-89425000D01*
X135154761Y-89377380D01*
X131583333Y-92027380D02*
X131583333Y-91503571D01*
X131535714Y-91408333D01*
X131440476Y-91360714D01*
X131250000Y-91360714D01*
X131154761Y-91408333D01*
X131583333Y-91979761D02*
X131488095Y-92027380D01*
X131250000Y-92027380D01*
X131154761Y-91979761D01*
X131107142Y-91884523D01*
X131107142Y-91789285D01*
X131154761Y-91694047D01*
X131250000Y-91646428D01*
X131488095Y-91646428D01*
X131583333Y-91598809D01*
X132488095Y-92027380D02*
X132488095Y-91027380D01*
X132488095Y-91979761D02*
X132392857Y-92027380D01*
X132202380Y-92027380D01*
X132107142Y-91979761D01*
X132059523Y-91932142D01*
X132011904Y-91836904D01*
X132011904Y-91551190D01*
X132059523Y-91455952D01*
X132107142Y-91408333D01*
X132202380Y-91360714D01*
X132392857Y-91360714D01*
X132488095Y-91408333D01*
X133392857Y-92027380D02*
X133392857Y-91503571D01*
X133345238Y-91408333D01*
X133250000Y-91360714D01*
X133059523Y-91360714D01*
X132964285Y-91408333D01*
X133392857Y-91979761D02*
X133297619Y-92027380D01*
X133059523Y-92027380D01*
X132964285Y-91979761D01*
X132916666Y-91884523D01*
X132916666Y-91789285D01*
X132964285Y-91694047D01*
X133059523Y-91646428D01*
X133297619Y-91646428D01*
X133392857Y-91598809D01*
X133869047Y-91360714D02*
X133869047Y-92360714D01*
X133869047Y-91408333D02*
X133964285Y-91360714D01*
X134154761Y-91360714D01*
X134250000Y-91408333D01*
X134297619Y-91455952D01*
X134345238Y-91551190D01*
X134345238Y-91836904D01*
X134297619Y-91932142D01*
X134250000Y-91979761D01*
X134154761Y-92027380D01*
X133964285Y-92027380D01*
X133869047Y-91979761D01*
X134630952Y-91360714D02*
X135011904Y-91360714D01*
X134773809Y-91027380D02*
X134773809Y-91884523D01*
X134821428Y-91979761D01*
X134916666Y-92027380D01*
X135011904Y-92027380D01*
X135726190Y-91979761D02*
X135630952Y-92027380D01*
X135440476Y-92027380D01*
X135345238Y-91979761D01*
X135297619Y-91884523D01*
X135297619Y-91503571D01*
X135345238Y-91408333D01*
X135440476Y-91360714D01*
X135630952Y-91360714D01*
X135726190Y-91408333D01*
X135773809Y-91503571D01*
X135773809Y-91598809D01*
X135297619Y-91694047D01*
X136202380Y-92027380D02*
X136202380Y-91360714D01*
X136202380Y-91551190D02*
X136250000Y-91455952D01*
X136297619Y-91408333D01*
X136392857Y-91360714D01*
X136488095Y-91360714D01*
X132083333Y-93677380D02*
X132083333Y-93010714D01*
X132083333Y-92677380D02*
X132035714Y-92725000D01*
X132083333Y-92772619D01*
X132130952Y-92725000D01*
X132083333Y-92677380D01*
X132083333Y-92772619D01*
X132511904Y-93629761D02*
X132607142Y-93677380D01*
X132797619Y-93677380D01*
X132892857Y-93629761D01*
X132940476Y-93534523D01*
X132940476Y-93486904D01*
X132892857Y-93391666D01*
X132797619Y-93344047D01*
X132654761Y-93344047D01*
X132559523Y-93296428D01*
X132511904Y-93201190D01*
X132511904Y-93153571D01*
X132559523Y-93058333D01*
X132654761Y-93010714D01*
X132797619Y-93010714D01*
X132892857Y-93058333D01*
X133321428Y-93629761D02*
X133416666Y-93677380D01*
X133607142Y-93677380D01*
X133702380Y-93629761D01*
X133750000Y-93534523D01*
X133750000Y-93486904D01*
X133702380Y-93391666D01*
X133607142Y-93344047D01*
X133464285Y-93344047D01*
X133369047Y-93296428D01*
X133321428Y-93201190D01*
X133321428Y-93153571D01*
X133369047Y-93058333D01*
X133464285Y-93010714D01*
X133607142Y-93010714D01*
X133702380Y-93058333D01*
X135464285Y-93677380D02*
X134892857Y-93677380D01*
X135178571Y-93677380D02*
X135178571Y-92677380D01*
X135083333Y-92820238D01*
X134988095Y-92915476D01*
X134892857Y-92963095D01*
D11*
%TO.C,RV1*%
X137150000Y-100525000D02*
X137150000Y-110295000D01*
X132080000Y-100525000D02*
X132080000Y-110295000D01*
X137150000Y-100525000D02*
X132080000Y-100525000D01*
X137150000Y-110295000D02*
X132080000Y-110295000D01*
%TO.C,O1*%
X103840000Y-86790000D02*
G75*
G02*
X105840000Y-84790000I2000000J0D01*
G01*
X127840000Y-84790000D02*
G75*
G02*
X129840000Y-86790000I0J-2000000D01*
G01*
X129840000Y-108790000D02*
G75*
G02*
X127840000Y-110790000I-2000000J0D01*
G01*
X103840000Y-86790000D02*
X103840000Y-110790000D01*
X127840000Y-110790000D02*
X103840000Y-110790000D01*
X129840000Y-108790000D02*
X129840000Y-86790000D01*
X105840000Y-84790000D02*
X127840000Y-84790000D01*
%TO.C,RV1*%
D10*
X132754761Y-100147380D02*
X132421428Y-99671190D01*
X132183333Y-100147380D02*
X132183333Y-99147380D01*
X132564285Y-99147380D01*
X132659523Y-99195000D01*
X132707142Y-99242619D01*
X132754761Y-99337857D01*
X132754761Y-99480714D01*
X132707142Y-99575952D01*
X132659523Y-99623571D01*
X132564285Y-99671190D01*
X132183333Y-99671190D01*
X133040476Y-99147380D02*
X133373809Y-100147380D01*
X133707142Y-99147380D01*
X134564285Y-100147380D02*
X133992857Y-100147380D01*
X134278571Y-100147380D02*
X134278571Y-99147380D01*
X134183333Y-99290238D01*
X134088095Y-99385476D01*
X133992857Y-99433095D01*
%TO.C,O1*%
X116268571Y-97242380D02*
X116459047Y-97242380D01*
X116554285Y-97290000D01*
X116649523Y-97385238D01*
X116697142Y-97575714D01*
X116697142Y-97909047D01*
X116649523Y-98099523D01*
X116554285Y-98194761D01*
X116459047Y-98242380D01*
X116268571Y-98242380D01*
X116173333Y-98194761D01*
X116078095Y-98099523D01*
X116030476Y-97909047D01*
X116030476Y-97575714D01*
X116078095Y-97385238D01*
X116173333Y-97290000D01*
X116268571Y-97242380D01*
X117649523Y-98242380D02*
X117078095Y-98242380D01*
X117363809Y-98242380D02*
X117363809Y-97242380D01*
X117268571Y-97385238D01*
X117173333Y-97480476D01*
X117078095Y-97528095D01*
%TD*%
M02*
