%TF.GenerationSoftware,KiCad,Pcbnew,(5.1.9)-1*%
%TF.CreationDate,2021-03-21T16:20:22+00:00*%
%TF.ProjectId,hp5354a-ocxo,68703533-3534-4612-9d6f-63786f2e6b69,rev?*%
%TF.SameCoordinates,Original*%
%TF.FileFunction,Copper,L2,Bot*%
%TF.FilePolarity,Positive*%
%FSLAX46Y46*%
G04 Gerber Fmt 4.6, Leading zero omitted, Abs format (unit mm)*
G04 Created by KiCad (PCBNEW (5.1.9)-1) date 2021-03-21 16:20:22*
%MOMM*%
%LPD*%
G01*
G04 APERTURE LIST*
%TA.AperFunction,ComponentPad*%
%ADD10C,1.440000*%
%TD*%
%TA.AperFunction,ComponentPad*%
%ADD11C,3.000000*%
%TD*%
%TA.AperFunction,ComponentPad*%
%ADD12R,1.700000X1.700000*%
%TD*%
%TA.AperFunction,SMDPad,CuDef*%
%ADD13R,0.900000X0.800000*%
%TD*%
%TA.AperFunction,ViaPad*%
%ADD14C,0.800000*%
%TD*%
%TA.AperFunction,Conductor*%
%ADD15C,0.750000*%
%TD*%
%TA.AperFunction,Conductor*%
%ADD16C,0.500000*%
%TD*%
%TA.AperFunction,Conductor*%
%ADD17C,0.254000*%
%TD*%
%TA.AperFunction,Conductor*%
%ADD18C,0.100000*%
%TD*%
G04 APERTURE END LIST*
D10*
%TO.P,RV1,3*%
%TO.N,Net-(C6-Pad1)*%
X135890000Y-102870000D03*
%TO.P,RV1,2*%
%TO.N,/Vcont*%
X133350000Y-105410000D03*
%TO.P,RV1,1*%
%TO.N,GND*%
X135890000Y-107950000D03*
%TD*%
D11*
%TO.P,O1,1*%
%TO.N,Net-(J4-Pad1)*%
X107315000Y-107315000D03*
%TO.P,O1,2*%
%TO.N,GND*%
X116840000Y-107315000D03*
%TO.P,O1,3*%
%TO.N,/Vcont*%
X126365000Y-107315000D03*
%TO.P,O1,4*%
%TO.N,N/C*%
X126365000Y-88265000D03*
%TO.P,O1,5*%
%TO.N,+5V*%
X107315000Y-88265000D03*
%TD*%
%TO.P,L1,2*%
%TO.N,+5V*%
%TA.AperFunction,SMDPad,CuDef*%
G36*
G01*
X108657500Y-96700001D02*
X108657500Y-93799999D01*
G75*
G02*
X108907499Y-93550000I249999J0D01*
G01*
X109532501Y-93550000D01*
G75*
G02*
X109782500Y-93799999I0J-249999D01*
G01*
X109782500Y-96700001D01*
G75*
G02*
X109532501Y-96950000I-249999J0D01*
G01*
X108907499Y-96950000D01*
G75*
G02*
X108657500Y-96700001I0J249999D01*
G01*
G37*
%TD.AperFunction*%
%TO.P,L1,1*%
%TO.N,Net-(C2-Pad1)*%
%TA.AperFunction,SMDPad,CuDef*%
G36*
G01*
X104382500Y-96700001D02*
X104382500Y-93799999D01*
G75*
G02*
X104632499Y-93550000I249999J0D01*
G01*
X105257501Y-93550000D01*
G75*
G02*
X105507500Y-93799999I0J-249999D01*
G01*
X105507500Y-96700001D01*
G75*
G02*
X105257501Y-96950000I-249999J0D01*
G01*
X104632499Y-96950000D01*
G75*
G02*
X104382500Y-96700001I0J249999D01*
G01*
G37*
%TD.AperFunction*%
%TD*%
D12*
%TO.P,J4,1*%
%TO.N,Net-(J4-Pad1)*%
X97790000Y-105410000D03*
%TD*%
D13*
%TO.P,U1,3*%
%TO.N,GND*%
X126905000Y-101920000D03*
%TO.P,U1,2*%
%TO.N,Net-(C6-Pad1)*%
X128905000Y-102870000D03*
%TO.P,U1,1*%
%TO.N,+5V*%
X128905000Y-100970000D03*
%TD*%
D12*
%TO.P,J3,1*%
%TO.N,GND*%
X135890000Y-97790000D03*
%TD*%
%TO.P,J2,1*%
%TO.N,GND*%
X97790000Y-97790000D03*
%TD*%
%TO.P,J1,1*%
%TO.N,Net-(C2-Pad1)*%
X97790000Y-90170000D03*
%TD*%
%TO.P,C6,2*%
%TO.N,GND*%
%TA.AperFunction,SMDPad,CuDef*%
G36*
G01*
X132555000Y-101470000D02*
X131605000Y-101470000D01*
G75*
G02*
X131355000Y-101220000I0J250000D01*
G01*
X131355000Y-100720000D01*
G75*
G02*
X131605000Y-100470000I250000J0D01*
G01*
X132555000Y-100470000D01*
G75*
G02*
X132805000Y-100720000I0J-250000D01*
G01*
X132805000Y-101220000D01*
G75*
G02*
X132555000Y-101470000I-250000J0D01*
G01*
G37*
%TD.AperFunction*%
%TO.P,C6,1*%
%TO.N,Net-(C6-Pad1)*%
%TA.AperFunction,SMDPad,CuDef*%
G36*
G01*
X132555000Y-103370000D02*
X131605000Y-103370000D01*
G75*
G02*
X131355000Y-103120000I0J250000D01*
G01*
X131355000Y-102620000D01*
G75*
G02*
X131605000Y-102370000I250000J0D01*
G01*
X132555000Y-102370000D01*
G75*
G02*
X132805000Y-102620000I0J-250000D01*
G01*
X132805000Y-103120000D01*
G75*
G02*
X132555000Y-103370000I-250000J0D01*
G01*
G37*
%TD.AperFunction*%
%TD*%
%TO.P,C5,2*%
%TO.N,GND*%
%TA.AperFunction,SMDPad,CuDef*%
G36*
G01*
X130940000Y-98900000D02*
X130940000Y-97950000D01*
G75*
G02*
X131190000Y-97700000I250000J0D01*
G01*
X131690000Y-97700000D01*
G75*
G02*
X131940000Y-97950000I0J-250000D01*
G01*
X131940000Y-98900000D01*
G75*
G02*
X131690000Y-99150000I-250000J0D01*
G01*
X131190000Y-99150000D01*
G75*
G02*
X130940000Y-98900000I0J250000D01*
G01*
G37*
%TD.AperFunction*%
%TO.P,C5,1*%
%TO.N,+5V*%
%TA.AperFunction,SMDPad,CuDef*%
G36*
G01*
X129040000Y-98900000D02*
X129040000Y-97950000D01*
G75*
G02*
X129290000Y-97700000I250000J0D01*
G01*
X129790000Y-97700000D01*
G75*
G02*
X130040000Y-97950000I0J-250000D01*
G01*
X130040000Y-98900000D01*
G75*
G02*
X129790000Y-99150000I-250000J0D01*
G01*
X129290000Y-99150000D01*
G75*
G02*
X129040000Y-98900000I0J250000D01*
G01*
G37*
%TD.AperFunction*%
%TD*%
%TO.P,C4,2*%
%TO.N,GND*%
%TA.AperFunction,SMDPad,CuDef*%
G36*
G01*
X130335000Y-107445000D02*
X131285000Y-107445000D01*
G75*
G02*
X131535000Y-107695000I0J-250000D01*
G01*
X131535000Y-108195000D01*
G75*
G02*
X131285000Y-108445000I-250000J0D01*
G01*
X130335000Y-108445000D01*
G75*
G02*
X130085000Y-108195000I0J250000D01*
G01*
X130085000Y-107695000D01*
G75*
G02*
X130335000Y-107445000I250000J0D01*
G01*
G37*
%TD.AperFunction*%
%TO.P,C4,1*%
%TO.N,/Vcont*%
%TA.AperFunction,SMDPad,CuDef*%
G36*
G01*
X130335000Y-105545000D02*
X131285000Y-105545000D01*
G75*
G02*
X131535000Y-105795000I0J-250000D01*
G01*
X131535000Y-106295000D01*
G75*
G02*
X131285000Y-106545000I-250000J0D01*
G01*
X130335000Y-106545000D01*
G75*
G02*
X130085000Y-106295000I0J250000D01*
G01*
X130085000Y-105795000D01*
G75*
G02*
X130335000Y-105545000I250000J0D01*
G01*
G37*
%TD.AperFunction*%
%TD*%
%TO.P,C3,2*%
%TO.N,GND*%
%TA.AperFunction,SMDPad,CuDef*%
G36*
G01*
X112235000Y-92580000D02*
X111285000Y-92580000D01*
G75*
G02*
X111035000Y-92330000I0J250000D01*
G01*
X111035000Y-91830000D01*
G75*
G02*
X111285000Y-91580000I250000J0D01*
G01*
X112235000Y-91580000D01*
G75*
G02*
X112485000Y-91830000I0J-250000D01*
G01*
X112485000Y-92330000D01*
G75*
G02*
X112235000Y-92580000I-250000J0D01*
G01*
G37*
%TD.AperFunction*%
%TO.P,C3,1*%
%TO.N,+5V*%
%TA.AperFunction,SMDPad,CuDef*%
G36*
G01*
X112235000Y-94480000D02*
X111285000Y-94480000D01*
G75*
G02*
X111035000Y-94230000I0J250000D01*
G01*
X111035000Y-93730000D01*
G75*
G02*
X111285000Y-93480000I250000J0D01*
G01*
X112235000Y-93480000D01*
G75*
G02*
X112485000Y-93730000I0J-250000D01*
G01*
X112485000Y-94230000D01*
G75*
G02*
X112235000Y-94480000I-250000J0D01*
G01*
G37*
%TD.AperFunction*%
%TD*%
%TO.P,C2,2*%
%TO.N,GND*%
%TA.AperFunction,SMDPad,CuDef*%
G36*
G01*
X102710000Y-92580000D02*
X101760000Y-92580000D01*
G75*
G02*
X101510000Y-92330000I0J250000D01*
G01*
X101510000Y-91830000D01*
G75*
G02*
X101760000Y-91580000I250000J0D01*
G01*
X102710000Y-91580000D01*
G75*
G02*
X102960000Y-91830000I0J-250000D01*
G01*
X102960000Y-92330000D01*
G75*
G02*
X102710000Y-92580000I-250000J0D01*
G01*
G37*
%TD.AperFunction*%
%TO.P,C2,1*%
%TO.N,Net-(C2-Pad1)*%
%TA.AperFunction,SMDPad,CuDef*%
G36*
G01*
X102710000Y-94480000D02*
X101760000Y-94480000D01*
G75*
G02*
X101510000Y-94230000I0J250000D01*
G01*
X101510000Y-93730000D01*
G75*
G02*
X101760000Y-93480000I250000J0D01*
G01*
X102710000Y-93480000D01*
G75*
G02*
X102960000Y-93730000I0J-250000D01*
G01*
X102960000Y-94230000D01*
G75*
G02*
X102710000Y-94480000I-250000J0D01*
G01*
G37*
%TD.AperFunction*%
%TD*%
%TO.P,C1,2*%
%TO.N,GND*%
%TA.AperFunction,SMDPad,CuDef*%
G36*
G01*
X107185000Y-91600000D02*
X107185000Y-92550000D01*
G75*
G02*
X106935000Y-92800000I-250000J0D01*
G01*
X106435000Y-92800000D01*
G75*
G02*
X106185000Y-92550000I0J250000D01*
G01*
X106185000Y-91600000D01*
G75*
G02*
X106435000Y-91350000I250000J0D01*
G01*
X106935000Y-91350000D01*
G75*
G02*
X107185000Y-91600000I0J-250000D01*
G01*
G37*
%TD.AperFunction*%
%TO.P,C1,1*%
%TO.N,+5V*%
%TA.AperFunction,SMDPad,CuDef*%
G36*
G01*
X109085000Y-91600000D02*
X109085000Y-92550000D01*
G75*
G02*
X108835000Y-92800000I-250000J0D01*
G01*
X108335000Y-92800000D01*
G75*
G02*
X108085000Y-92550000I0J250000D01*
G01*
X108085000Y-91600000D01*
G75*
G02*
X108335000Y-91350000I250000J0D01*
G01*
X108835000Y-91350000D01*
G75*
G02*
X109085000Y-91600000I0J-250000D01*
G01*
G37*
%TD.AperFunction*%
%TD*%
D14*
%TO.N,GND*%
X100000000Y-85000000D03*
X100000000Y-90000000D03*
X105000000Y-85000000D03*
X105000000Y-90000000D03*
X110000000Y-85000000D03*
X115000000Y-85000000D03*
X115000000Y-90000000D03*
X120000000Y-85000000D03*
X120000000Y-90000000D03*
X125000000Y-85000000D03*
X130000000Y-85000000D03*
X130000000Y-90000000D03*
X135000000Y-85000000D03*
X135000000Y-90000000D03*
X135000000Y-95000000D03*
X130000000Y-95000000D03*
X125000000Y-95000000D03*
X120000000Y-95000000D03*
X115000000Y-95000000D03*
X115000000Y-100000000D03*
X120000000Y-100000000D03*
X125000000Y-100000000D03*
X125000000Y-105000000D03*
X120000000Y-105000000D03*
X115000000Y-105000000D03*
X110000000Y-105000000D03*
X110000000Y-100000000D03*
X105000000Y-100000000D03*
X100000000Y-100000000D03*
X100000000Y-110000000D03*
X105000000Y-110000000D03*
X110000000Y-110000000D03*
X115000000Y-110000000D03*
X120000000Y-110000000D03*
X125000000Y-110000000D03*
X130000000Y-110000000D03*
X135000000Y-110000000D03*
X135000000Y-100000000D03*
X135000000Y-105000000D03*
%TD*%
D15*
%TO.N,+5V*%
X109220000Y-90170000D02*
X107315000Y-88265000D01*
X109220000Y-92075000D02*
X109220000Y-90170000D01*
X109220000Y-95250000D02*
X109220000Y-92075000D01*
X108585000Y-92075000D02*
X109220000Y-92075000D01*
X113030000Y-98425000D02*
X129540000Y-98425000D01*
X111760000Y-97155000D02*
X113030000Y-98425000D01*
X111760000Y-95250000D02*
X111760000Y-97155000D01*
X109220000Y-95250000D02*
X111760000Y-95250000D01*
X111760000Y-95250000D02*
X111760000Y-93980000D01*
X128905000Y-99060000D02*
X129540000Y-98425000D01*
X128905000Y-100970000D02*
X128905000Y-99060000D01*
%TO.N,Net-(C2-Pad1)*%
X102235000Y-93980000D02*
X99060000Y-93980000D01*
X97790000Y-92710000D02*
X97790000Y-90170000D01*
X99060000Y-93980000D02*
X97790000Y-92710000D01*
X103505000Y-95250000D02*
X102235000Y-93980000D01*
X104945000Y-95250000D02*
X103505000Y-95250000D01*
D16*
%TO.N,/Vcont*%
X128270000Y-105410000D02*
X126365000Y-107315000D01*
X130810000Y-106045000D02*
X130810000Y-105410000D01*
X130810000Y-105410000D02*
X128270000Y-105410000D01*
X133350000Y-105410000D02*
X130810000Y-105410000D01*
%TO.N,Net-(C6-Pad1)*%
X128905000Y-102870000D02*
X132080000Y-102870000D01*
X132080000Y-102870000D02*
X135890000Y-102870000D01*
D15*
%TO.N,Net-(J4-Pad1)*%
X107315000Y-107315000D02*
X105410000Y-105410000D01*
X105410000Y-105410000D02*
X97790000Y-105410000D01*
%TD*%
D17*
%TO.N,GND*%
X137277869Y-84494722D02*
X137391246Y-84528953D01*
X137495819Y-84584555D01*
X137587596Y-84659407D01*
X137663091Y-84750664D01*
X137719419Y-84854844D01*
X137754440Y-84967976D01*
X137770001Y-85116031D01*
X137770000Y-110457721D01*
X137755278Y-110607869D01*
X137721047Y-110721246D01*
X137665446Y-110825817D01*
X137590594Y-110917595D01*
X137499335Y-110993091D01*
X137395160Y-111049419D01*
X137282024Y-111084440D01*
X137133979Y-111100000D01*
X96552279Y-111100000D01*
X96402131Y-111085278D01*
X96288754Y-111051047D01*
X96184183Y-110995446D01*
X96092405Y-110920594D01*
X96016909Y-110829335D01*
X95960581Y-110725160D01*
X95925560Y-110612024D01*
X95910000Y-110463979D01*
X95910000Y-104560000D01*
X96301928Y-104560000D01*
X96301928Y-106260000D01*
X96314188Y-106384482D01*
X96350498Y-106504180D01*
X96409463Y-106614494D01*
X96488815Y-106711185D01*
X96585506Y-106790537D01*
X96695820Y-106849502D01*
X96815518Y-106885812D01*
X96940000Y-106898072D01*
X98640000Y-106898072D01*
X98764482Y-106885812D01*
X98884180Y-106849502D01*
X98994494Y-106790537D01*
X99091185Y-106711185D01*
X99170537Y-106614494D01*
X99229502Y-106504180D01*
X99255038Y-106420000D01*
X104991645Y-106420000D01*
X105262586Y-106690942D01*
X105262047Y-106692244D01*
X105180000Y-107104721D01*
X105180000Y-107525279D01*
X105262047Y-107937756D01*
X105422988Y-108326302D01*
X105656637Y-108675983D01*
X105954017Y-108973363D01*
X106303698Y-109207012D01*
X106692244Y-109367953D01*
X107104721Y-109450000D01*
X107525279Y-109450000D01*
X107937756Y-109367953D01*
X108326302Y-109207012D01*
X108675983Y-108973363D01*
X108842693Y-108806653D01*
X115527952Y-108806653D01*
X115683962Y-109122214D01*
X116058745Y-109313020D01*
X116463551Y-109427044D01*
X116882824Y-109459902D01*
X117300451Y-109410334D01*
X117700383Y-109280243D01*
X117996038Y-109122214D01*
X118152048Y-108806653D01*
X116840000Y-107494605D01*
X115527952Y-108806653D01*
X108842693Y-108806653D01*
X108973363Y-108675983D01*
X109207012Y-108326302D01*
X109367953Y-107937756D01*
X109450000Y-107525279D01*
X109450000Y-107357824D01*
X114695098Y-107357824D01*
X114744666Y-107775451D01*
X114874757Y-108175383D01*
X115032786Y-108471038D01*
X115348347Y-108627048D01*
X116660395Y-107315000D01*
X117019605Y-107315000D01*
X118331653Y-108627048D01*
X118647214Y-108471038D01*
X118838020Y-108096255D01*
X118952044Y-107691449D01*
X118984902Y-107272176D01*
X118965027Y-107104721D01*
X124230000Y-107104721D01*
X124230000Y-107525279D01*
X124312047Y-107937756D01*
X124472988Y-108326302D01*
X124706637Y-108675983D01*
X125004017Y-108973363D01*
X125353698Y-109207012D01*
X125742244Y-109367953D01*
X126154721Y-109450000D01*
X126575279Y-109450000D01*
X126987756Y-109367953D01*
X127376302Y-109207012D01*
X127725983Y-108973363D01*
X128023363Y-108675983D01*
X128177700Y-108445000D01*
X129446928Y-108445000D01*
X129459188Y-108569482D01*
X129495498Y-108689180D01*
X129554463Y-108799494D01*
X129633815Y-108896185D01*
X129730506Y-108975537D01*
X129840820Y-109034502D01*
X129960518Y-109070812D01*
X130085000Y-109083072D01*
X130524250Y-109080000D01*
X130683000Y-108921250D01*
X130683000Y-108072000D01*
X130937000Y-108072000D01*
X130937000Y-108921250D01*
X131095750Y-109080000D01*
X131535000Y-109083072D01*
X131659482Y-109070812D01*
X131779180Y-109034502D01*
X131889494Y-108975537D01*
X131986185Y-108896185D01*
X131994904Y-108885560D01*
X135134045Y-108885560D01*
X135195932Y-109121368D01*
X135437790Y-109234266D01*
X135697027Y-109297811D01*
X135963680Y-109309561D01*
X136227501Y-109269063D01*
X136478353Y-109177875D01*
X136584068Y-109121368D01*
X136645955Y-108885560D01*
X135890000Y-108129605D01*
X135134045Y-108885560D01*
X131994904Y-108885560D01*
X132065537Y-108799494D01*
X132124502Y-108689180D01*
X132160812Y-108569482D01*
X132173072Y-108445000D01*
X132170000Y-108230750D01*
X132011250Y-108072000D01*
X130937000Y-108072000D01*
X130683000Y-108072000D01*
X129608750Y-108072000D01*
X129450000Y-108230750D01*
X129446928Y-108445000D01*
X128177700Y-108445000D01*
X128257012Y-108326302D01*
X128382362Y-108023680D01*
X134530439Y-108023680D01*
X134570937Y-108287501D01*
X134662125Y-108538353D01*
X134718632Y-108644068D01*
X134954440Y-108705955D01*
X135710395Y-107950000D01*
X136069605Y-107950000D01*
X136825560Y-108705955D01*
X137061368Y-108644068D01*
X137174266Y-108402210D01*
X137237811Y-108142973D01*
X137249561Y-107876320D01*
X137209063Y-107612499D01*
X137117875Y-107361647D01*
X137061368Y-107255932D01*
X136825560Y-107194045D01*
X136069605Y-107950000D01*
X135710395Y-107950000D01*
X134954440Y-107194045D01*
X134718632Y-107255932D01*
X134605734Y-107497790D01*
X134542189Y-107757027D01*
X134530439Y-108023680D01*
X128382362Y-108023680D01*
X128417953Y-107937756D01*
X128500000Y-107525279D01*
X128500000Y-107104721D01*
X128417953Y-106692244D01*
X128365637Y-106565942D01*
X128636579Y-106295000D01*
X129446928Y-106295000D01*
X129463992Y-106468254D01*
X129514528Y-106634850D01*
X129596595Y-106788386D01*
X129707038Y-106922962D01*
X129713594Y-106928342D01*
X129633815Y-106993815D01*
X129554463Y-107090506D01*
X129495498Y-107200820D01*
X129459188Y-107320518D01*
X129446928Y-107445000D01*
X129450000Y-107659250D01*
X129608750Y-107818000D01*
X130683000Y-107818000D01*
X130683000Y-107798000D01*
X130937000Y-107798000D01*
X130937000Y-107818000D01*
X132011250Y-107818000D01*
X132170000Y-107659250D01*
X132173072Y-107445000D01*
X132160812Y-107320518D01*
X132124502Y-107200820D01*
X132065537Y-107090506D01*
X132003112Y-107014440D01*
X135134045Y-107014440D01*
X135890000Y-107770395D01*
X136645955Y-107014440D01*
X136584068Y-106778632D01*
X136342210Y-106665734D01*
X136082973Y-106602189D01*
X135816320Y-106590439D01*
X135552499Y-106630937D01*
X135301647Y-106722125D01*
X135195932Y-106778632D01*
X135134045Y-107014440D01*
X132003112Y-107014440D01*
X131986185Y-106993815D01*
X131906406Y-106928342D01*
X131912962Y-106922962D01*
X132023405Y-106788386D01*
X132105472Y-106634850D01*
X132156008Y-106468254D01*
X132173072Y-106295000D01*
X132318741Y-106295000D01*
X132486238Y-106462497D01*
X132708167Y-106610785D01*
X132954761Y-106712928D01*
X133216544Y-106765000D01*
X133483456Y-106765000D01*
X133745239Y-106712928D01*
X133991833Y-106610785D01*
X134213762Y-106462497D01*
X134402497Y-106273762D01*
X134550785Y-106051833D01*
X134652928Y-105805239D01*
X134705000Y-105543456D01*
X134705000Y-105276544D01*
X134652928Y-105014761D01*
X134550785Y-104768167D01*
X134402497Y-104546238D01*
X134213762Y-104357503D01*
X133991833Y-104209215D01*
X133745239Y-104107072D01*
X133483456Y-104055000D01*
X133216544Y-104055000D01*
X132954761Y-104107072D01*
X132708167Y-104209215D01*
X132486238Y-104357503D01*
X132318741Y-104525000D01*
X130853477Y-104525000D01*
X130810000Y-104520718D01*
X130766524Y-104525000D01*
X128313469Y-104525000D01*
X128270000Y-104520719D01*
X128226531Y-104525000D01*
X128226523Y-104525000D01*
X128096510Y-104537805D01*
X127929687Y-104588411D01*
X127794360Y-104660744D01*
X127775941Y-104670589D01*
X127674953Y-104753468D01*
X127674951Y-104753470D01*
X127641183Y-104781183D01*
X127613470Y-104814951D01*
X127114058Y-105314363D01*
X126987756Y-105262047D01*
X126575279Y-105180000D01*
X126154721Y-105180000D01*
X125742244Y-105262047D01*
X125353698Y-105422988D01*
X125004017Y-105656637D01*
X124706637Y-105954017D01*
X124472988Y-106303698D01*
X124312047Y-106692244D01*
X124230000Y-107104721D01*
X118965027Y-107104721D01*
X118935334Y-106854549D01*
X118805243Y-106454617D01*
X118647214Y-106158962D01*
X118331653Y-106002952D01*
X117019605Y-107315000D01*
X116660395Y-107315000D01*
X115348347Y-106002952D01*
X115032786Y-106158962D01*
X114841980Y-106533745D01*
X114727956Y-106938551D01*
X114695098Y-107357824D01*
X109450000Y-107357824D01*
X109450000Y-107104721D01*
X109367953Y-106692244D01*
X109207012Y-106303698D01*
X108973363Y-105954017D01*
X108842693Y-105823347D01*
X115527952Y-105823347D01*
X116840000Y-107135395D01*
X118152048Y-105823347D01*
X117996038Y-105507786D01*
X117621255Y-105316980D01*
X117216449Y-105202956D01*
X116797176Y-105170098D01*
X116379549Y-105219666D01*
X115979617Y-105349757D01*
X115683962Y-105507786D01*
X115527952Y-105823347D01*
X108842693Y-105823347D01*
X108675983Y-105656637D01*
X108326302Y-105422988D01*
X107937756Y-105262047D01*
X107525279Y-105180000D01*
X107104721Y-105180000D01*
X106692244Y-105262047D01*
X106690942Y-105262586D01*
X106159261Y-104730906D01*
X106127633Y-104692367D01*
X105973840Y-104566153D01*
X105798380Y-104472368D01*
X105607994Y-104414615D01*
X105459608Y-104400000D01*
X105410000Y-104395114D01*
X105360392Y-104400000D01*
X99255038Y-104400000D01*
X99229502Y-104315820D01*
X99170537Y-104205506D01*
X99091185Y-104108815D01*
X98994494Y-104029463D01*
X98884180Y-103970498D01*
X98764482Y-103934188D01*
X98640000Y-103921928D01*
X96940000Y-103921928D01*
X96815518Y-103934188D01*
X96695820Y-103970498D01*
X96585506Y-104029463D01*
X96488815Y-104108815D01*
X96409463Y-104205506D01*
X96350498Y-104315820D01*
X96314188Y-104435518D01*
X96301928Y-104560000D01*
X95910000Y-104560000D01*
X95910000Y-102320000D01*
X125816928Y-102320000D01*
X125829188Y-102444482D01*
X125865498Y-102564180D01*
X125924463Y-102674494D01*
X126003815Y-102771185D01*
X126100506Y-102850537D01*
X126210820Y-102909502D01*
X126330518Y-102945812D01*
X126455000Y-102958072D01*
X126619250Y-102955000D01*
X126778000Y-102796250D01*
X126778000Y-102047000D01*
X125978750Y-102047000D01*
X125820000Y-102205750D01*
X125816928Y-102320000D01*
X95910000Y-102320000D01*
X95910000Y-101520000D01*
X125816928Y-101520000D01*
X125820000Y-101634250D01*
X125978750Y-101793000D01*
X126778000Y-101793000D01*
X126778000Y-101043750D01*
X126619250Y-100885000D01*
X126455000Y-100881928D01*
X126330518Y-100894188D01*
X126210820Y-100930498D01*
X126100506Y-100989463D01*
X126003815Y-101068815D01*
X125924463Y-101165506D01*
X125865498Y-101275820D01*
X125829188Y-101395518D01*
X125816928Y-101520000D01*
X95910000Y-101520000D01*
X95910000Y-98640000D01*
X96301928Y-98640000D01*
X96314188Y-98764482D01*
X96350498Y-98884180D01*
X96409463Y-98994494D01*
X96488815Y-99091185D01*
X96585506Y-99170537D01*
X96695820Y-99229502D01*
X96815518Y-99265812D01*
X96940000Y-99278072D01*
X97504250Y-99275000D01*
X97663000Y-99116250D01*
X97663000Y-97917000D01*
X97917000Y-97917000D01*
X97917000Y-99116250D01*
X98075750Y-99275000D01*
X98640000Y-99278072D01*
X98764482Y-99265812D01*
X98884180Y-99229502D01*
X98994494Y-99170537D01*
X99091185Y-99091185D01*
X99170537Y-98994494D01*
X99229502Y-98884180D01*
X99265812Y-98764482D01*
X99278072Y-98640000D01*
X99275000Y-98075750D01*
X99116250Y-97917000D01*
X97917000Y-97917000D01*
X97663000Y-97917000D01*
X96463750Y-97917000D01*
X96305000Y-98075750D01*
X96301928Y-98640000D01*
X95910000Y-98640000D01*
X95910000Y-96940000D01*
X96301928Y-96940000D01*
X96305000Y-97504250D01*
X96463750Y-97663000D01*
X97663000Y-97663000D01*
X97663000Y-96463750D01*
X97917000Y-96463750D01*
X97917000Y-97663000D01*
X99116250Y-97663000D01*
X99275000Y-97504250D01*
X99278072Y-96940000D01*
X99265812Y-96815518D01*
X99229502Y-96695820D01*
X99170537Y-96585506D01*
X99091185Y-96488815D01*
X98994494Y-96409463D01*
X98884180Y-96350498D01*
X98764482Y-96314188D01*
X98640000Y-96301928D01*
X98075750Y-96305000D01*
X97917000Y-96463750D01*
X97663000Y-96463750D01*
X97504250Y-96305000D01*
X96940000Y-96301928D01*
X96815518Y-96314188D01*
X96695820Y-96350498D01*
X96585506Y-96409463D01*
X96488815Y-96488815D01*
X96409463Y-96585506D01*
X96350498Y-96695820D01*
X96314188Y-96815518D01*
X96301928Y-96940000D01*
X95910000Y-96940000D01*
X95910000Y-89320000D01*
X96301928Y-89320000D01*
X96301928Y-91020000D01*
X96314188Y-91144482D01*
X96350498Y-91264180D01*
X96409463Y-91374494D01*
X96488815Y-91471185D01*
X96585506Y-91550537D01*
X96695820Y-91609502D01*
X96780000Y-91635038D01*
X96780000Y-92660392D01*
X96775114Y-92710000D01*
X96794615Y-92907994D01*
X96816315Y-92979528D01*
X96852368Y-93098379D01*
X96946153Y-93273840D01*
X97072367Y-93427633D01*
X97110906Y-93459261D01*
X98310739Y-94659094D01*
X98342367Y-94697633D01*
X98496160Y-94823847D01*
X98671620Y-94917632D01*
X98862006Y-94975385D01*
X99010392Y-94990000D01*
X99010394Y-94990000D01*
X99059999Y-94994886D01*
X99109604Y-94990000D01*
X101307015Y-94990000D01*
X101420150Y-95050472D01*
X101586746Y-95101008D01*
X101760000Y-95118072D01*
X101944717Y-95118072D01*
X102755739Y-95929094D01*
X102787367Y-95967633D01*
X102941160Y-96093847D01*
X103116620Y-96187632D01*
X103307006Y-96245385D01*
X103455392Y-96260000D01*
X103455394Y-96260000D01*
X103504999Y-96264886D01*
X103554604Y-96260000D01*
X103744428Y-96260000D01*
X103744428Y-96700001D01*
X103761492Y-96873255D01*
X103812028Y-97039851D01*
X103894095Y-97193387D01*
X104004538Y-97327962D01*
X104139113Y-97438405D01*
X104292649Y-97520472D01*
X104459245Y-97571008D01*
X104632499Y-97588072D01*
X105257501Y-97588072D01*
X105430755Y-97571008D01*
X105597351Y-97520472D01*
X105750887Y-97438405D01*
X105885462Y-97327962D01*
X105995905Y-97193387D01*
X106077972Y-97039851D01*
X106128508Y-96873255D01*
X106145572Y-96700001D01*
X106145572Y-93799999D01*
X106128508Y-93626745D01*
X106077972Y-93460149D01*
X106059444Y-93425486D01*
X106060518Y-93425812D01*
X106185000Y-93438072D01*
X106399250Y-93435000D01*
X106558000Y-93276250D01*
X106558000Y-92202000D01*
X105708750Y-92202000D01*
X105550000Y-92360750D01*
X105546928Y-92800000D01*
X105559188Y-92924482D01*
X105573711Y-92972357D01*
X105430755Y-92928992D01*
X105257501Y-92911928D01*
X104632499Y-92911928D01*
X104459245Y-92928992D01*
X104292649Y-92979528D01*
X104139113Y-93061595D01*
X104004538Y-93172038D01*
X103894095Y-93306613D01*
X103812028Y-93460149D01*
X103761492Y-93626745D01*
X103744428Y-93799999D01*
X103744428Y-94061073D01*
X103598072Y-93914717D01*
X103598072Y-93730000D01*
X103581008Y-93556746D01*
X103530472Y-93390150D01*
X103448405Y-93236614D01*
X103337962Y-93102038D01*
X103331406Y-93096658D01*
X103411185Y-93031185D01*
X103490537Y-92934494D01*
X103549502Y-92824180D01*
X103585812Y-92704482D01*
X103598072Y-92580000D01*
X103595000Y-92365750D01*
X103436250Y-92207000D01*
X102362000Y-92207000D01*
X102362000Y-92227000D01*
X102108000Y-92227000D01*
X102108000Y-92207000D01*
X101033750Y-92207000D01*
X100875000Y-92365750D01*
X100871928Y-92580000D01*
X100884188Y-92704482D01*
X100920498Y-92824180D01*
X100979463Y-92934494D01*
X101008602Y-92970000D01*
X99478355Y-92970000D01*
X98800000Y-92291645D01*
X98800000Y-91635038D01*
X98884180Y-91609502D01*
X98939373Y-91580000D01*
X100871928Y-91580000D01*
X100875000Y-91794250D01*
X101033750Y-91953000D01*
X102108000Y-91953000D01*
X102108000Y-91103750D01*
X102362000Y-91103750D01*
X102362000Y-91953000D01*
X103436250Y-91953000D01*
X103595000Y-91794250D01*
X103598072Y-91580000D01*
X103585812Y-91455518D01*
X103553804Y-91350000D01*
X105546928Y-91350000D01*
X105550000Y-91789250D01*
X105708750Y-91948000D01*
X106558000Y-91948000D01*
X106558000Y-90873750D01*
X106399250Y-90715000D01*
X106185000Y-90711928D01*
X106060518Y-90724188D01*
X105940820Y-90760498D01*
X105830506Y-90819463D01*
X105733815Y-90898815D01*
X105654463Y-90995506D01*
X105595498Y-91105820D01*
X105559188Y-91225518D01*
X105546928Y-91350000D01*
X103553804Y-91350000D01*
X103549502Y-91335820D01*
X103490537Y-91225506D01*
X103411185Y-91128815D01*
X103314494Y-91049463D01*
X103204180Y-90990498D01*
X103084482Y-90954188D01*
X102960000Y-90941928D01*
X102520750Y-90945000D01*
X102362000Y-91103750D01*
X102108000Y-91103750D01*
X101949250Y-90945000D01*
X101510000Y-90941928D01*
X101385518Y-90954188D01*
X101265820Y-90990498D01*
X101155506Y-91049463D01*
X101058815Y-91128815D01*
X100979463Y-91225506D01*
X100920498Y-91335820D01*
X100884188Y-91455518D01*
X100871928Y-91580000D01*
X98939373Y-91580000D01*
X98994494Y-91550537D01*
X99091185Y-91471185D01*
X99170537Y-91374494D01*
X99229502Y-91264180D01*
X99265812Y-91144482D01*
X99278072Y-91020000D01*
X99278072Y-89320000D01*
X99265812Y-89195518D01*
X99229502Y-89075820D01*
X99170537Y-88965506D01*
X99091185Y-88868815D01*
X98994494Y-88789463D01*
X98884180Y-88730498D01*
X98764482Y-88694188D01*
X98640000Y-88681928D01*
X96940000Y-88681928D01*
X96815518Y-88694188D01*
X96695820Y-88730498D01*
X96585506Y-88789463D01*
X96488815Y-88868815D01*
X96409463Y-88965506D01*
X96350498Y-89075820D01*
X96314188Y-89195518D01*
X96301928Y-89320000D01*
X95910000Y-89320000D01*
X95910000Y-88054721D01*
X105180000Y-88054721D01*
X105180000Y-88475279D01*
X105262047Y-88887756D01*
X105422988Y-89276302D01*
X105656637Y-89625983D01*
X105954017Y-89923363D01*
X106303698Y-90157012D01*
X106692244Y-90317953D01*
X107104721Y-90400000D01*
X107525279Y-90400000D01*
X107937756Y-90317953D01*
X107939058Y-90317414D01*
X108210001Y-90588357D01*
X108210001Y-90724239D01*
X108161746Y-90728992D01*
X107995150Y-90779528D01*
X107841614Y-90861595D01*
X107707038Y-90972038D01*
X107701658Y-90978594D01*
X107636185Y-90898815D01*
X107539494Y-90819463D01*
X107429180Y-90760498D01*
X107309482Y-90724188D01*
X107185000Y-90711928D01*
X106970750Y-90715000D01*
X106812000Y-90873750D01*
X106812000Y-91948000D01*
X106832000Y-91948000D01*
X106832000Y-92202000D01*
X106812000Y-92202000D01*
X106812000Y-93276250D01*
X106970750Y-93435000D01*
X107185000Y-93438072D01*
X107309482Y-93425812D01*
X107429180Y-93389502D01*
X107539494Y-93330537D01*
X107636185Y-93251185D01*
X107701658Y-93171406D01*
X107707038Y-93177962D01*
X107841614Y-93288405D01*
X107995150Y-93370472D01*
X108115455Y-93406966D01*
X108087028Y-93460149D01*
X108036492Y-93626745D01*
X108019428Y-93799999D01*
X108019428Y-96700001D01*
X108036492Y-96873255D01*
X108087028Y-97039851D01*
X108169095Y-97193387D01*
X108279538Y-97327962D01*
X108414113Y-97438405D01*
X108567649Y-97520472D01*
X108734245Y-97571008D01*
X108907499Y-97588072D01*
X109532501Y-97588072D01*
X109705755Y-97571008D01*
X109872351Y-97520472D01*
X110025887Y-97438405D01*
X110160462Y-97327962D01*
X110270905Y-97193387D01*
X110352972Y-97039851D01*
X110403508Y-96873255D01*
X110420572Y-96700001D01*
X110420572Y-96260000D01*
X110750001Y-96260000D01*
X110750001Y-97105383D01*
X110745114Y-97155000D01*
X110764615Y-97352994D01*
X110822368Y-97543379D01*
X110846257Y-97588072D01*
X110916154Y-97718840D01*
X111042368Y-97872633D01*
X111080901Y-97904256D01*
X112280739Y-99104094D01*
X112312367Y-99142633D01*
X112466160Y-99268847D01*
X112641620Y-99362632D01*
X112832006Y-99420385D01*
X112980392Y-99435000D01*
X112980394Y-99435000D01*
X113029999Y-99439886D01*
X113079604Y-99435000D01*
X127895001Y-99435000D01*
X127895000Y-100270626D01*
X127865498Y-100325820D01*
X127829188Y-100445518D01*
X127816928Y-100570000D01*
X127816928Y-101081905D01*
X127806185Y-101068815D01*
X127709494Y-100989463D01*
X127599180Y-100930498D01*
X127479482Y-100894188D01*
X127355000Y-100881928D01*
X127190750Y-100885000D01*
X127032000Y-101043750D01*
X127032000Y-101793000D01*
X127831250Y-101793000D01*
X127915857Y-101708393D01*
X127924463Y-101724494D01*
X128003815Y-101821185D01*
X128100506Y-101900537D01*
X128136918Y-101920000D01*
X128100506Y-101939463D01*
X128003815Y-102018815D01*
X127924463Y-102115506D01*
X127915857Y-102131607D01*
X127831250Y-102047000D01*
X127032000Y-102047000D01*
X127032000Y-102796250D01*
X127190750Y-102955000D01*
X127355000Y-102958072D01*
X127479482Y-102945812D01*
X127599180Y-102909502D01*
X127709494Y-102850537D01*
X127806185Y-102771185D01*
X127816928Y-102758095D01*
X127816928Y-103270000D01*
X127829188Y-103394482D01*
X127865498Y-103514180D01*
X127924463Y-103624494D01*
X128003815Y-103721185D01*
X128100506Y-103800537D01*
X128210820Y-103859502D01*
X128330518Y-103895812D01*
X128455000Y-103908072D01*
X129355000Y-103908072D01*
X129479482Y-103895812D01*
X129599180Y-103859502D01*
X129709494Y-103800537D01*
X129764981Y-103755000D01*
X130985614Y-103755000D01*
X131111614Y-103858405D01*
X131265150Y-103940472D01*
X131431746Y-103991008D01*
X131605000Y-104008072D01*
X132555000Y-104008072D01*
X132728254Y-103991008D01*
X132894850Y-103940472D01*
X133048386Y-103858405D01*
X133174386Y-103755000D01*
X134858741Y-103755000D01*
X135026238Y-103922497D01*
X135248167Y-104070785D01*
X135494761Y-104172928D01*
X135756544Y-104225000D01*
X136023456Y-104225000D01*
X136285239Y-104172928D01*
X136531833Y-104070785D01*
X136753762Y-103922497D01*
X136942497Y-103733762D01*
X137090785Y-103511833D01*
X137192928Y-103265239D01*
X137245000Y-103003456D01*
X137245000Y-102736544D01*
X137192928Y-102474761D01*
X137090785Y-102228167D01*
X136942497Y-102006238D01*
X136753762Y-101817503D01*
X136531833Y-101669215D01*
X136285239Y-101567072D01*
X136023456Y-101515000D01*
X135756544Y-101515000D01*
X135494761Y-101567072D01*
X135248167Y-101669215D01*
X135026238Y-101817503D01*
X134858741Y-101985000D01*
X133178426Y-101985000D01*
X133256185Y-101921185D01*
X133335537Y-101824494D01*
X133394502Y-101714180D01*
X133430812Y-101594482D01*
X133443072Y-101470000D01*
X133440000Y-101255750D01*
X133281250Y-101097000D01*
X132207000Y-101097000D01*
X132207000Y-101117000D01*
X131953000Y-101117000D01*
X131953000Y-101097000D01*
X130878750Y-101097000D01*
X130720000Y-101255750D01*
X130716928Y-101470000D01*
X130729188Y-101594482D01*
X130765498Y-101714180D01*
X130824463Y-101824494D01*
X130903815Y-101921185D01*
X130981574Y-101985000D01*
X129764981Y-101985000D01*
X129709494Y-101939463D01*
X129673082Y-101920000D01*
X129709494Y-101900537D01*
X129806185Y-101821185D01*
X129885537Y-101724494D01*
X129944502Y-101614180D01*
X129980812Y-101494482D01*
X129993072Y-101370000D01*
X129993072Y-100570000D01*
X129983224Y-100470000D01*
X130716928Y-100470000D01*
X130720000Y-100684250D01*
X130878750Y-100843000D01*
X131953000Y-100843000D01*
X131953000Y-99993750D01*
X132207000Y-99993750D01*
X132207000Y-100843000D01*
X133281250Y-100843000D01*
X133440000Y-100684250D01*
X133443072Y-100470000D01*
X133430812Y-100345518D01*
X133394502Y-100225820D01*
X133335537Y-100115506D01*
X133256185Y-100018815D01*
X133159494Y-99939463D01*
X133049180Y-99880498D01*
X132929482Y-99844188D01*
X132805000Y-99831928D01*
X132365750Y-99835000D01*
X132207000Y-99993750D01*
X131953000Y-99993750D01*
X131794250Y-99835000D01*
X131355000Y-99831928D01*
X131230518Y-99844188D01*
X131110820Y-99880498D01*
X131000506Y-99939463D01*
X130903815Y-100018815D01*
X130824463Y-100115506D01*
X130765498Y-100225820D01*
X130729188Y-100345518D01*
X130716928Y-100470000D01*
X129983224Y-100470000D01*
X129980812Y-100445518D01*
X129944502Y-100325820D01*
X129915000Y-100270627D01*
X129915000Y-99775761D01*
X129963254Y-99771008D01*
X130129850Y-99720472D01*
X130283386Y-99638405D01*
X130417962Y-99527962D01*
X130423342Y-99521406D01*
X130488815Y-99601185D01*
X130585506Y-99680537D01*
X130695820Y-99739502D01*
X130815518Y-99775812D01*
X130940000Y-99788072D01*
X131154250Y-99785000D01*
X131313000Y-99626250D01*
X131313000Y-98552000D01*
X131567000Y-98552000D01*
X131567000Y-99626250D01*
X131725750Y-99785000D01*
X131940000Y-99788072D01*
X132064482Y-99775812D01*
X132184180Y-99739502D01*
X132294494Y-99680537D01*
X132391185Y-99601185D01*
X132470537Y-99504494D01*
X132529502Y-99394180D01*
X132565812Y-99274482D01*
X132578072Y-99150000D01*
X132575000Y-98710750D01*
X132504250Y-98640000D01*
X134401928Y-98640000D01*
X134414188Y-98764482D01*
X134450498Y-98884180D01*
X134509463Y-98994494D01*
X134588815Y-99091185D01*
X134685506Y-99170537D01*
X134795820Y-99229502D01*
X134915518Y-99265812D01*
X135040000Y-99278072D01*
X135604250Y-99275000D01*
X135763000Y-99116250D01*
X135763000Y-97917000D01*
X136017000Y-97917000D01*
X136017000Y-99116250D01*
X136175750Y-99275000D01*
X136740000Y-99278072D01*
X136864482Y-99265812D01*
X136984180Y-99229502D01*
X137094494Y-99170537D01*
X137191185Y-99091185D01*
X137270537Y-98994494D01*
X137329502Y-98884180D01*
X137365812Y-98764482D01*
X137378072Y-98640000D01*
X137375000Y-98075750D01*
X137216250Y-97917000D01*
X136017000Y-97917000D01*
X135763000Y-97917000D01*
X134563750Y-97917000D01*
X134405000Y-98075750D01*
X134401928Y-98640000D01*
X132504250Y-98640000D01*
X132416250Y-98552000D01*
X131567000Y-98552000D01*
X131313000Y-98552000D01*
X131293000Y-98552000D01*
X131293000Y-98298000D01*
X131313000Y-98298000D01*
X131313000Y-97223750D01*
X131567000Y-97223750D01*
X131567000Y-98298000D01*
X132416250Y-98298000D01*
X132575000Y-98139250D01*
X132578072Y-97700000D01*
X132565812Y-97575518D01*
X132529502Y-97455820D01*
X132470537Y-97345506D01*
X132391185Y-97248815D01*
X132294494Y-97169463D01*
X132184180Y-97110498D01*
X132064482Y-97074188D01*
X131940000Y-97061928D01*
X131725750Y-97065000D01*
X131567000Y-97223750D01*
X131313000Y-97223750D01*
X131154250Y-97065000D01*
X130940000Y-97061928D01*
X130815518Y-97074188D01*
X130695820Y-97110498D01*
X130585506Y-97169463D01*
X130488815Y-97248815D01*
X130423342Y-97328594D01*
X130417962Y-97322038D01*
X130283386Y-97211595D01*
X130129850Y-97129528D01*
X129963254Y-97078992D01*
X129790000Y-97061928D01*
X129290000Y-97061928D01*
X129116746Y-97078992D01*
X128950150Y-97129528D01*
X128796614Y-97211595D01*
X128662038Y-97322038D01*
X128585747Y-97415000D01*
X113448355Y-97415000D01*
X112973355Y-96940000D01*
X134401928Y-96940000D01*
X134405000Y-97504250D01*
X134563750Y-97663000D01*
X135763000Y-97663000D01*
X135763000Y-96463750D01*
X136017000Y-96463750D01*
X136017000Y-97663000D01*
X137216250Y-97663000D01*
X137375000Y-97504250D01*
X137378072Y-96940000D01*
X137365812Y-96815518D01*
X137329502Y-96695820D01*
X137270537Y-96585506D01*
X137191185Y-96488815D01*
X137094494Y-96409463D01*
X136984180Y-96350498D01*
X136864482Y-96314188D01*
X136740000Y-96301928D01*
X136175750Y-96305000D01*
X136017000Y-96463750D01*
X135763000Y-96463750D01*
X135604250Y-96305000D01*
X135040000Y-96301928D01*
X134915518Y-96314188D01*
X134795820Y-96350498D01*
X134685506Y-96409463D01*
X134588815Y-96488815D01*
X134509463Y-96585506D01*
X134450498Y-96695820D01*
X134414188Y-96815518D01*
X134401928Y-96940000D01*
X112973355Y-96940000D01*
X112770000Y-96736645D01*
X112770000Y-95299607D01*
X112774886Y-95250000D01*
X112770000Y-95200392D01*
X112770000Y-94934253D01*
X112862962Y-94857962D01*
X112973405Y-94723386D01*
X113055472Y-94569850D01*
X113106008Y-94403254D01*
X113123072Y-94230000D01*
X113123072Y-93730000D01*
X113106008Y-93556746D01*
X113055472Y-93390150D01*
X112973405Y-93236614D01*
X112862962Y-93102038D01*
X112856406Y-93096658D01*
X112936185Y-93031185D01*
X113015537Y-92934494D01*
X113074502Y-92824180D01*
X113110812Y-92704482D01*
X113123072Y-92580000D01*
X113120000Y-92365750D01*
X112961250Y-92207000D01*
X111887000Y-92207000D01*
X111887000Y-92227000D01*
X111633000Y-92227000D01*
X111633000Y-92207000D01*
X110558750Y-92207000D01*
X110400000Y-92365750D01*
X110396928Y-92580000D01*
X110409188Y-92704482D01*
X110445498Y-92824180D01*
X110504463Y-92934494D01*
X110583815Y-93031185D01*
X110663594Y-93096658D01*
X110657038Y-93102038D01*
X110546595Y-93236614D01*
X110464528Y-93390150D01*
X110413992Y-93556746D01*
X110405303Y-93644969D01*
X110403508Y-93626745D01*
X110352972Y-93460149D01*
X110270905Y-93306613D01*
X110230000Y-93256770D01*
X110230000Y-92124607D01*
X110234886Y-92075000D01*
X110230000Y-92025392D01*
X110230000Y-91580000D01*
X110396928Y-91580000D01*
X110400000Y-91794250D01*
X110558750Y-91953000D01*
X111633000Y-91953000D01*
X111633000Y-91103750D01*
X111887000Y-91103750D01*
X111887000Y-91953000D01*
X112961250Y-91953000D01*
X113120000Y-91794250D01*
X113123072Y-91580000D01*
X113110812Y-91455518D01*
X113074502Y-91335820D01*
X113015537Y-91225506D01*
X112936185Y-91128815D01*
X112839494Y-91049463D01*
X112729180Y-90990498D01*
X112609482Y-90954188D01*
X112485000Y-90941928D01*
X112045750Y-90945000D01*
X111887000Y-91103750D01*
X111633000Y-91103750D01*
X111474250Y-90945000D01*
X111035000Y-90941928D01*
X110910518Y-90954188D01*
X110790820Y-90990498D01*
X110680506Y-91049463D01*
X110583815Y-91128815D01*
X110504463Y-91225506D01*
X110445498Y-91335820D01*
X110409188Y-91455518D01*
X110396928Y-91580000D01*
X110230000Y-91580000D01*
X110230000Y-90219608D01*
X110234886Y-90170000D01*
X110215385Y-89972005D01*
X110157632Y-89781620D01*
X110063847Y-89606160D01*
X109937633Y-89452367D01*
X109899100Y-89420744D01*
X109367414Y-88889058D01*
X109367953Y-88887756D01*
X109450000Y-88475279D01*
X109450000Y-88054721D01*
X124230000Y-88054721D01*
X124230000Y-88475279D01*
X124312047Y-88887756D01*
X124472988Y-89276302D01*
X124706637Y-89625983D01*
X125004017Y-89923363D01*
X125353698Y-90157012D01*
X125742244Y-90317953D01*
X126154721Y-90400000D01*
X126575279Y-90400000D01*
X126987756Y-90317953D01*
X127376302Y-90157012D01*
X127725983Y-89923363D01*
X128023363Y-89625983D01*
X128257012Y-89276302D01*
X128417953Y-88887756D01*
X128500000Y-88475279D01*
X128500000Y-88054721D01*
X128417953Y-87642244D01*
X128257012Y-87253698D01*
X128023363Y-86904017D01*
X127725983Y-86606637D01*
X127376302Y-86372988D01*
X126987756Y-86212047D01*
X126575279Y-86130000D01*
X126154721Y-86130000D01*
X125742244Y-86212047D01*
X125353698Y-86372988D01*
X125004017Y-86606637D01*
X124706637Y-86904017D01*
X124472988Y-87253698D01*
X124312047Y-87642244D01*
X124230000Y-88054721D01*
X109450000Y-88054721D01*
X109367953Y-87642244D01*
X109207012Y-87253698D01*
X108973363Y-86904017D01*
X108675983Y-86606637D01*
X108326302Y-86372988D01*
X107937756Y-86212047D01*
X107525279Y-86130000D01*
X107104721Y-86130000D01*
X106692244Y-86212047D01*
X106303698Y-86372988D01*
X105954017Y-86606637D01*
X105656637Y-86904017D01*
X105422988Y-87253698D01*
X105262047Y-87642244D01*
X105180000Y-88054721D01*
X95910000Y-88054721D01*
X95910000Y-85122279D01*
X95924722Y-84972131D01*
X95958953Y-84858754D01*
X96014555Y-84754181D01*
X96089407Y-84662404D01*
X96180664Y-84586909D01*
X96284844Y-84530581D01*
X96397976Y-84495560D01*
X96546022Y-84480000D01*
X137127721Y-84480000D01*
X137277869Y-84494722D01*
%TA.AperFunction,Conductor*%
D18*
G36*
X137277869Y-84494722D02*
G01*
X137391246Y-84528953D01*
X137495819Y-84584555D01*
X137587596Y-84659407D01*
X137663091Y-84750664D01*
X137719419Y-84854844D01*
X137754440Y-84967976D01*
X137770001Y-85116031D01*
X137770000Y-110457721D01*
X137755278Y-110607869D01*
X137721047Y-110721246D01*
X137665446Y-110825817D01*
X137590594Y-110917595D01*
X137499335Y-110993091D01*
X137395160Y-111049419D01*
X137282024Y-111084440D01*
X137133979Y-111100000D01*
X96552279Y-111100000D01*
X96402131Y-111085278D01*
X96288754Y-111051047D01*
X96184183Y-110995446D01*
X96092405Y-110920594D01*
X96016909Y-110829335D01*
X95960581Y-110725160D01*
X95925560Y-110612024D01*
X95910000Y-110463979D01*
X95910000Y-104560000D01*
X96301928Y-104560000D01*
X96301928Y-106260000D01*
X96314188Y-106384482D01*
X96350498Y-106504180D01*
X96409463Y-106614494D01*
X96488815Y-106711185D01*
X96585506Y-106790537D01*
X96695820Y-106849502D01*
X96815518Y-106885812D01*
X96940000Y-106898072D01*
X98640000Y-106898072D01*
X98764482Y-106885812D01*
X98884180Y-106849502D01*
X98994494Y-106790537D01*
X99091185Y-106711185D01*
X99170537Y-106614494D01*
X99229502Y-106504180D01*
X99255038Y-106420000D01*
X104991645Y-106420000D01*
X105262586Y-106690942D01*
X105262047Y-106692244D01*
X105180000Y-107104721D01*
X105180000Y-107525279D01*
X105262047Y-107937756D01*
X105422988Y-108326302D01*
X105656637Y-108675983D01*
X105954017Y-108973363D01*
X106303698Y-109207012D01*
X106692244Y-109367953D01*
X107104721Y-109450000D01*
X107525279Y-109450000D01*
X107937756Y-109367953D01*
X108326302Y-109207012D01*
X108675983Y-108973363D01*
X108842693Y-108806653D01*
X115527952Y-108806653D01*
X115683962Y-109122214D01*
X116058745Y-109313020D01*
X116463551Y-109427044D01*
X116882824Y-109459902D01*
X117300451Y-109410334D01*
X117700383Y-109280243D01*
X117996038Y-109122214D01*
X118152048Y-108806653D01*
X116840000Y-107494605D01*
X115527952Y-108806653D01*
X108842693Y-108806653D01*
X108973363Y-108675983D01*
X109207012Y-108326302D01*
X109367953Y-107937756D01*
X109450000Y-107525279D01*
X109450000Y-107357824D01*
X114695098Y-107357824D01*
X114744666Y-107775451D01*
X114874757Y-108175383D01*
X115032786Y-108471038D01*
X115348347Y-108627048D01*
X116660395Y-107315000D01*
X117019605Y-107315000D01*
X118331653Y-108627048D01*
X118647214Y-108471038D01*
X118838020Y-108096255D01*
X118952044Y-107691449D01*
X118984902Y-107272176D01*
X118965027Y-107104721D01*
X124230000Y-107104721D01*
X124230000Y-107525279D01*
X124312047Y-107937756D01*
X124472988Y-108326302D01*
X124706637Y-108675983D01*
X125004017Y-108973363D01*
X125353698Y-109207012D01*
X125742244Y-109367953D01*
X126154721Y-109450000D01*
X126575279Y-109450000D01*
X126987756Y-109367953D01*
X127376302Y-109207012D01*
X127725983Y-108973363D01*
X128023363Y-108675983D01*
X128177700Y-108445000D01*
X129446928Y-108445000D01*
X129459188Y-108569482D01*
X129495498Y-108689180D01*
X129554463Y-108799494D01*
X129633815Y-108896185D01*
X129730506Y-108975537D01*
X129840820Y-109034502D01*
X129960518Y-109070812D01*
X130085000Y-109083072D01*
X130524250Y-109080000D01*
X130683000Y-108921250D01*
X130683000Y-108072000D01*
X130937000Y-108072000D01*
X130937000Y-108921250D01*
X131095750Y-109080000D01*
X131535000Y-109083072D01*
X131659482Y-109070812D01*
X131779180Y-109034502D01*
X131889494Y-108975537D01*
X131986185Y-108896185D01*
X131994904Y-108885560D01*
X135134045Y-108885560D01*
X135195932Y-109121368D01*
X135437790Y-109234266D01*
X135697027Y-109297811D01*
X135963680Y-109309561D01*
X136227501Y-109269063D01*
X136478353Y-109177875D01*
X136584068Y-109121368D01*
X136645955Y-108885560D01*
X135890000Y-108129605D01*
X135134045Y-108885560D01*
X131994904Y-108885560D01*
X132065537Y-108799494D01*
X132124502Y-108689180D01*
X132160812Y-108569482D01*
X132173072Y-108445000D01*
X132170000Y-108230750D01*
X132011250Y-108072000D01*
X130937000Y-108072000D01*
X130683000Y-108072000D01*
X129608750Y-108072000D01*
X129450000Y-108230750D01*
X129446928Y-108445000D01*
X128177700Y-108445000D01*
X128257012Y-108326302D01*
X128382362Y-108023680D01*
X134530439Y-108023680D01*
X134570937Y-108287501D01*
X134662125Y-108538353D01*
X134718632Y-108644068D01*
X134954440Y-108705955D01*
X135710395Y-107950000D01*
X136069605Y-107950000D01*
X136825560Y-108705955D01*
X137061368Y-108644068D01*
X137174266Y-108402210D01*
X137237811Y-108142973D01*
X137249561Y-107876320D01*
X137209063Y-107612499D01*
X137117875Y-107361647D01*
X137061368Y-107255932D01*
X136825560Y-107194045D01*
X136069605Y-107950000D01*
X135710395Y-107950000D01*
X134954440Y-107194045D01*
X134718632Y-107255932D01*
X134605734Y-107497790D01*
X134542189Y-107757027D01*
X134530439Y-108023680D01*
X128382362Y-108023680D01*
X128417953Y-107937756D01*
X128500000Y-107525279D01*
X128500000Y-107104721D01*
X128417953Y-106692244D01*
X128365637Y-106565942D01*
X128636579Y-106295000D01*
X129446928Y-106295000D01*
X129463992Y-106468254D01*
X129514528Y-106634850D01*
X129596595Y-106788386D01*
X129707038Y-106922962D01*
X129713594Y-106928342D01*
X129633815Y-106993815D01*
X129554463Y-107090506D01*
X129495498Y-107200820D01*
X129459188Y-107320518D01*
X129446928Y-107445000D01*
X129450000Y-107659250D01*
X129608750Y-107818000D01*
X130683000Y-107818000D01*
X130683000Y-107798000D01*
X130937000Y-107798000D01*
X130937000Y-107818000D01*
X132011250Y-107818000D01*
X132170000Y-107659250D01*
X132173072Y-107445000D01*
X132160812Y-107320518D01*
X132124502Y-107200820D01*
X132065537Y-107090506D01*
X132003112Y-107014440D01*
X135134045Y-107014440D01*
X135890000Y-107770395D01*
X136645955Y-107014440D01*
X136584068Y-106778632D01*
X136342210Y-106665734D01*
X136082973Y-106602189D01*
X135816320Y-106590439D01*
X135552499Y-106630937D01*
X135301647Y-106722125D01*
X135195932Y-106778632D01*
X135134045Y-107014440D01*
X132003112Y-107014440D01*
X131986185Y-106993815D01*
X131906406Y-106928342D01*
X131912962Y-106922962D01*
X132023405Y-106788386D01*
X132105472Y-106634850D01*
X132156008Y-106468254D01*
X132173072Y-106295000D01*
X132318741Y-106295000D01*
X132486238Y-106462497D01*
X132708167Y-106610785D01*
X132954761Y-106712928D01*
X133216544Y-106765000D01*
X133483456Y-106765000D01*
X133745239Y-106712928D01*
X133991833Y-106610785D01*
X134213762Y-106462497D01*
X134402497Y-106273762D01*
X134550785Y-106051833D01*
X134652928Y-105805239D01*
X134705000Y-105543456D01*
X134705000Y-105276544D01*
X134652928Y-105014761D01*
X134550785Y-104768167D01*
X134402497Y-104546238D01*
X134213762Y-104357503D01*
X133991833Y-104209215D01*
X133745239Y-104107072D01*
X133483456Y-104055000D01*
X133216544Y-104055000D01*
X132954761Y-104107072D01*
X132708167Y-104209215D01*
X132486238Y-104357503D01*
X132318741Y-104525000D01*
X130853477Y-104525000D01*
X130810000Y-104520718D01*
X130766524Y-104525000D01*
X128313469Y-104525000D01*
X128270000Y-104520719D01*
X128226531Y-104525000D01*
X128226523Y-104525000D01*
X128096510Y-104537805D01*
X127929687Y-104588411D01*
X127794360Y-104660744D01*
X127775941Y-104670589D01*
X127674953Y-104753468D01*
X127674951Y-104753470D01*
X127641183Y-104781183D01*
X127613470Y-104814951D01*
X127114058Y-105314363D01*
X126987756Y-105262047D01*
X126575279Y-105180000D01*
X126154721Y-105180000D01*
X125742244Y-105262047D01*
X125353698Y-105422988D01*
X125004017Y-105656637D01*
X124706637Y-105954017D01*
X124472988Y-106303698D01*
X124312047Y-106692244D01*
X124230000Y-107104721D01*
X118965027Y-107104721D01*
X118935334Y-106854549D01*
X118805243Y-106454617D01*
X118647214Y-106158962D01*
X118331653Y-106002952D01*
X117019605Y-107315000D01*
X116660395Y-107315000D01*
X115348347Y-106002952D01*
X115032786Y-106158962D01*
X114841980Y-106533745D01*
X114727956Y-106938551D01*
X114695098Y-107357824D01*
X109450000Y-107357824D01*
X109450000Y-107104721D01*
X109367953Y-106692244D01*
X109207012Y-106303698D01*
X108973363Y-105954017D01*
X108842693Y-105823347D01*
X115527952Y-105823347D01*
X116840000Y-107135395D01*
X118152048Y-105823347D01*
X117996038Y-105507786D01*
X117621255Y-105316980D01*
X117216449Y-105202956D01*
X116797176Y-105170098D01*
X116379549Y-105219666D01*
X115979617Y-105349757D01*
X115683962Y-105507786D01*
X115527952Y-105823347D01*
X108842693Y-105823347D01*
X108675983Y-105656637D01*
X108326302Y-105422988D01*
X107937756Y-105262047D01*
X107525279Y-105180000D01*
X107104721Y-105180000D01*
X106692244Y-105262047D01*
X106690942Y-105262586D01*
X106159261Y-104730906D01*
X106127633Y-104692367D01*
X105973840Y-104566153D01*
X105798380Y-104472368D01*
X105607994Y-104414615D01*
X105459608Y-104400000D01*
X105410000Y-104395114D01*
X105360392Y-104400000D01*
X99255038Y-104400000D01*
X99229502Y-104315820D01*
X99170537Y-104205506D01*
X99091185Y-104108815D01*
X98994494Y-104029463D01*
X98884180Y-103970498D01*
X98764482Y-103934188D01*
X98640000Y-103921928D01*
X96940000Y-103921928D01*
X96815518Y-103934188D01*
X96695820Y-103970498D01*
X96585506Y-104029463D01*
X96488815Y-104108815D01*
X96409463Y-104205506D01*
X96350498Y-104315820D01*
X96314188Y-104435518D01*
X96301928Y-104560000D01*
X95910000Y-104560000D01*
X95910000Y-102320000D01*
X125816928Y-102320000D01*
X125829188Y-102444482D01*
X125865498Y-102564180D01*
X125924463Y-102674494D01*
X126003815Y-102771185D01*
X126100506Y-102850537D01*
X126210820Y-102909502D01*
X126330518Y-102945812D01*
X126455000Y-102958072D01*
X126619250Y-102955000D01*
X126778000Y-102796250D01*
X126778000Y-102047000D01*
X125978750Y-102047000D01*
X125820000Y-102205750D01*
X125816928Y-102320000D01*
X95910000Y-102320000D01*
X95910000Y-101520000D01*
X125816928Y-101520000D01*
X125820000Y-101634250D01*
X125978750Y-101793000D01*
X126778000Y-101793000D01*
X126778000Y-101043750D01*
X126619250Y-100885000D01*
X126455000Y-100881928D01*
X126330518Y-100894188D01*
X126210820Y-100930498D01*
X126100506Y-100989463D01*
X126003815Y-101068815D01*
X125924463Y-101165506D01*
X125865498Y-101275820D01*
X125829188Y-101395518D01*
X125816928Y-101520000D01*
X95910000Y-101520000D01*
X95910000Y-98640000D01*
X96301928Y-98640000D01*
X96314188Y-98764482D01*
X96350498Y-98884180D01*
X96409463Y-98994494D01*
X96488815Y-99091185D01*
X96585506Y-99170537D01*
X96695820Y-99229502D01*
X96815518Y-99265812D01*
X96940000Y-99278072D01*
X97504250Y-99275000D01*
X97663000Y-99116250D01*
X97663000Y-97917000D01*
X97917000Y-97917000D01*
X97917000Y-99116250D01*
X98075750Y-99275000D01*
X98640000Y-99278072D01*
X98764482Y-99265812D01*
X98884180Y-99229502D01*
X98994494Y-99170537D01*
X99091185Y-99091185D01*
X99170537Y-98994494D01*
X99229502Y-98884180D01*
X99265812Y-98764482D01*
X99278072Y-98640000D01*
X99275000Y-98075750D01*
X99116250Y-97917000D01*
X97917000Y-97917000D01*
X97663000Y-97917000D01*
X96463750Y-97917000D01*
X96305000Y-98075750D01*
X96301928Y-98640000D01*
X95910000Y-98640000D01*
X95910000Y-96940000D01*
X96301928Y-96940000D01*
X96305000Y-97504250D01*
X96463750Y-97663000D01*
X97663000Y-97663000D01*
X97663000Y-96463750D01*
X97917000Y-96463750D01*
X97917000Y-97663000D01*
X99116250Y-97663000D01*
X99275000Y-97504250D01*
X99278072Y-96940000D01*
X99265812Y-96815518D01*
X99229502Y-96695820D01*
X99170537Y-96585506D01*
X99091185Y-96488815D01*
X98994494Y-96409463D01*
X98884180Y-96350498D01*
X98764482Y-96314188D01*
X98640000Y-96301928D01*
X98075750Y-96305000D01*
X97917000Y-96463750D01*
X97663000Y-96463750D01*
X97504250Y-96305000D01*
X96940000Y-96301928D01*
X96815518Y-96314188D01*
X96695820Y-96350498D01*
X96585506Y-96409463D01*
X96488815Y-96488815D01*
X96409463Y-96585506D01*
X96350498Y-96695820D01*
X96314188Y-96815518D01*
X96301928Y-96940000D01*
X95910000Y-96940000D01*
X95910000Y-89320000D01*
X96301928Y-89320000D01*
X96301928Y-91020000D01*
X96314188Y-91144482D01*
X96350498Y-91264180D01*
X96409463Y-91374494D01*
X96488815Y-91471185D01*
X96585506Y-91550537D01*
X96695820Y-91609502D01*
X96780000Y-91635038D01*
X96780000Y-92660392D01*
X96775114Y-92710000D01*
X96794615Y-92907994D01*
X96816315Y-92979528D01*
X96852368Y-93098379D01*
X96946153Y-93273840D01*
X97072367Y-93427633D01*
X97110906Y-93459261D01*
X98310739Y-94659094D01*
X98342367Y-94697633D01*
X98496160Y-94823847D01*
X98671620Y-94917632D01*
X98862006Y-94975385D01*
X99010392Y-94990000D01*
X99010394Y-94990000D01*
X99059999Y-94994886D01*
X99109604Y-94990000D01*
X101307015Y-94990000D01*
X101420150Y-95050472D01*
X101586746Y-95101008D01*
X101760000Y-95118072D01*
X101944717Y-95118072D01*
X102755739Y-95929094D01*
X102787367Y-95967633D01*
X102941160Y-96093847D01*
X103116620Y-96187632D01*
X103307006Y-96245385D01*
X103455392Y-96260000D01*
X103455394Y-96260000D01*
X103504999Y-96264886D01*
X103554604Y-96260000D01*
X103744428Y-96260000D01*
X103744428Y-96700001D01*
X103761492Y-96873255D01*
X103812028Y-97039851D01*
X103894095Y-97193387D01*
X104004538Y-97327962D01*
X104139113Y-97438405D01*
X104292649Y-97520472D01*
X104459245Y-97571008D01*
X104632499Y-97588072D01*
X105257501Y-97588072D01*
X105430755Y-97571008D01*
X105597351Y-97520472D01*
X105750887Y-97438405D01*
X105885462Y-97327962D01*
X105995905Y-97193387D01*
X106077972Y-97039851D01*
X106128508Y-96873255D01*
X106145572Y-96700001D01*
X106145572Y-93799999D01*
X106128508Y-93626745D01*
X106077972Y-93460149D01*
X106059444Y-93425486D01*
X106060518Y-93425812D01*
X106185000Y-93438072D01*
X106399250Y-93435000D01*
X106558000Y-93276250D01*
X106558000Y-92202000D01*
X105708750Y-92202000D01*
X105550000Y-92360750D01*
X105546928Y-92800000D01*
X105559188Y-92924482D01*
X105573711Y-92972357D01*
X105430755Y-92928992D01*
X105257501Y-92911928D01*
X104632499Y-92911928D01*
X104459245Y-92928992D01*
X104292649Y-92979528D01*
X104139113Y-93061595D01*
X104004538Y-93172038D01*
X103894095Y-93306613D01*
X103812028Y-93460149D01*
X103761492Y-93626745D01*
X103744428Y-93799999D01*
X103744428Y-94061073D01*
X103598072Y-93914717D01*
X103598072Y-93730000D01*
X103581008Y-93556746D01*
X103530472Y-93390150D01*
X103448405Y-93236614D01*
X103337962Y-93102038D01*
X103331406Y-93096658D01*
X103411185Y-93031185D01*
X103490537Y-92934494D01*
X103549502Y-92824180D01*
X103585812Y-92704482D01*
X103598072Y-92580000D01*
X103595000Y-92365750D01*
X103436250Y-92207000D01*
X102362000Y-92207000D01*
X102362000Y-92227000D01*
X102108000Y-92227000D01*
X102108000Y-92207000D01*
X101033750Y-92207000D01*
X100875000Y-92365750D01*
X100871928Y-92580000D01*
X100884188Y-92704482D01*
X100920498Y-92824180D01*
X100979463Y-92934494D01*
X101008602Y-92970000D01*
X99478355Y-92970000D01*
X98800000Y-92291645D01*
X98800000Y-91635038D01*
X98884180Y-91609502D01*
X98939373Y-91580000D01*
X100871928Y-91580000D01*
X100875000Y-91794250D01*
X101033750Y-91953000D01*
X102108000Y-91953000D01*
X102108000Y-91103750D01*
X102362000Y-91103750D01*
X102362000Y-91953000D01*
X103436250Y-91953000D01*
X103595000Y-91794250D01*
X103598072Y-91580000D01*
X103585812Y-91455518D01*
X103553804Y-91350000D01*
X105546928Y-91350000D01*
X105550000Y-91789250D01*
X105708750Y-91948000D01*
X106558000Y-91948000D01*
X106558000Y-90873750D01*
X106399250Y-90715000D01*
X106185000Y-90711928D01*
X106060518Y-90724188D01*
X105940820Y-90760498D01*
X105830506Y-90819463D01*
X105733815Y-90898815D01*
X105654463Y-90995506D01*
X105595498Y-91105820D01*
X105559188Y-91225518D01*
X105546928Y-91350000D01*
X103553804Y-91350000D01*
X103549502Y-91335820D01*
X103490537Y-91225506D01*
X103411185Y-91128815D01*
X103314494Y-91049463D01*
X103204180Y-90990498D01*
X103084482Y-90954188D01*
X102960000Y-90941928D01*
X102520750Y-90945000D01*
X102362000Y-91103750D01*
X102108000Y-91103750D01*
X101949250Y-90945000D01*
X101510000Y-90941928D01*
X101385518Y-90954188D01*
X101265820Y-90990498D01*
X101155506Y-91049463D01*
X101058815Y-91128815D01*
X100979463Y-91225506D01*
X100920498Y-91335820D01*
X100884188Y-91455518D01*
X100871928Y-91580000D01*
X98939373Y-91580000D01*
X98994494Y-91550537D01*
X99091185Y-91471185D01*
X99170537Y-91374494D01*
X99229502Y-91264180D01*
X99265812Y-91144482D01*
X99278072Y-91020000D01*
X99278072Y-89320000D01*
X99265812Y-89195518D01*
X99229502Y-89075820D01*
X99170537Y-88965506D01*
X99091185Y-88868815D01*
X98994494Y-88789463D01*
X98884180Y-88730498D01*
X98764482Y-88694188D01*
X98640000Y-88681928D01*
X96940000Y-88681928D01*
X96815518Y-88694188D01*
X96695820Y-88730498D01*
X96585506Y-88789463D01*
X96488815Y-88868815D01*
X96409463Y-88965506D01*
X96350498Y-89075820D01*
X96314188Y-89195518D01*
X96301928Y-89320000D01*
X95910000Y-89320000D01*
X95910000Y-88054721D01*
X105180000Y-88054721D01*
X105180000Y-88475279D01*
X105262047Y-88887756D01*
X105422988Y-89276302D01*
X105656637Y-89625983D01*
X105954017Y-89923363D01*
X106303698Y-90157012D01*
X106692244Y-90317953D01*
X107104721Y-90400000D01*
X107525279Y-90400000D01*
X107937756Y-90317953D01*
X107939058Y-90317414D01*
X108210001Y-90588357D01*
X108210001Y-90724239D01*
X108161746Y-90728992D01*
X107995150Y-90779528D01*
X107841614Y-90861595D01*
X107707038Y-90972038D01*
X107701658Y-90978594D01*
X107636185Y-90898815D01*
X107539494Y-90819463D01*
X107429180Y-90760498D01*
X107309482Y-90724188D01*
X107185000Y-90711928D01*
X106970750Y-90715000D01*
X106812000Y-90873750D01*
X106812000Y-91948000D01*
X106832000Y-91948000D01*
X106832000Y-92202000D01*
X106812000Y-92202000D01*
X106812000Y-93276250D01*
X106970750Y-93435000D01*
X107185000Y-93438072D01*
X107309482Y-93425812D01*
X107429180Y-93389502D01*
X107539494Y-93330537D01*
X107636185Y-93251185D01*
X107701658Y-93171406D01*
X107707038Y-93177962D01*
X107841614Y-93288405D01*
X107995150Y-93370472D01*
X108115455Y-93406966D01*
X108087028Y-93460149D01*
X108036492Y-93626745D01*
X108019428Y-93799999D01*
X108019428Y-96700001D01*
X108036492Y-96873255D01*
X108087028Y-97039851D01*
X108169095Y-97193387D01*
X108279538Y-97327962D01*
X108414113Y-97438405D01*
X108567649Y-97520472D01*
X108734245Y-97571008D01*
X108907499Y-97588072D01*
X109532501Y-97588072D01*
X109705755Y-97571008D01*
X109872351Y-97520472D01*
X110025887Y-97438405D01*
X110160462Y-97327962D01*
X110270905Y-97193387D01*
X110352972Y-97039851D01*
X110403508Y-96873255D01*
X110420572Y-96700001D01*
X110420572Y-96260000D01*
X110750001Y-96260000D01*
X110750001Y-97105383D01*
X110745114Y-97155000D01*
X110764615Y-97352994D01*
X110822368Y-97543379D01*
X110846257Y-97588072D01*
X110916154Y-97718840D01*
X111042368Y-97872633D01*
X111080901Y-97904256D01*
X112280739Y-99104094D01*
X112312367Y-99142633D01*
X112466160Y-99268847D01*
X112641620Y-99362632D01*
X112832006Y-99420385D01*
X112980392Y-99435000D01*
X112980394Y-99435000D01*
X113029999Y-99439886D01*
X113079604Y-99435000D01*
X127895001Y-99435000D01*
X127895000Y-100270626D01*
X127865498Y-100325820D01*
X127829188Y-100445518D01*
X127816928Y-100570000D01*
X127816928Y-101081905D01*
X127806185Y-101068815D01*
X127709494Y-100989463D01*
X127599180Y-100930498D01*
X127479482Y-100894188D01*
X127355000Y-100881928D01*
X127190750Y-100885000D01*
X127032000Y-101043750D01*
X127032000Y-101793000D01*
X127831250Y-101793000D01*
X127915857Y-101708393D01*
X127924463Y-101724494D01*
X128003815Y-101821185D01*
X128100506Y-101900537D01*
X128136918Y-101920000D01*
X128100506Y-101939463D01*
X128003815Y-102018815D01*
X127924463Y-102115506D01*
X127915857Y-102131607D01*
X127831250Y-102047000D01*
X127032000Y-102047000D01*
X127032000Y-102796250D01*
X127190750Y-102955000D01*
X127355000Y-102958072D01*
X127479482Y-102945812D01*
X127599180Y-102909502D01*
X127709494Y-102850537D01*
X127806185Y-102771185D01*
X127816928Y-102758095D01*
X127816928Y-103270000D01*
X127829188Y-103394482D01*
X127865498Y-103514180D01*
X127924463Y-103624494D01*
X128003815Y-103721185D01*
X128100506Y-103800537D01*
X128210820Y-103859502D01*
X128330518Y-103895812D01*
X128455000Y-103908072D01*
X129355000Y-103908072D01*
X129479482Y-103895812D01*
X129599180Y-103859502D01*
X129709494Y-103800537D01*
X129764981Y-103755000D01*
X130985614Y-103755000D01*
X131111614Y-103858405D01*
X131265150Y-103940472D01*
X131431746Y-103991008D01*
X131605000Y-104008072D01*
X132555000Y-104008072D01*
X132728254Y-103991008D01*
X132894850Y-103940472D01*
X133048386Y-103858405D01*
X133174386Y-103755000D01*
X134858741Y-103755000D01*
X135026238Y-103922497D01*
X135248167Y-104070785D01*
X135494761Y-104172928D01*
X135756544Y-104225000D01*
X136023456Y-104225000D01*
X136285239Y-104172928D01*
X136531833Y-104070785D01*
X136753762Y-103922497D01*
X136942497Y-103733762D01*
X137090785Y-103511833D01*
X137192928Y-103265239D01*
X137245000Y-103003456D01*
X137245000Y-102736544D01*
X137192928Y-102474761D01*
X137090785Y-102228167D01*
X136942497Y-102006238D01*
X136753762Y-101817503D01*
X136531833Y-101669215D01*
X136285239Y-101567072D01*
X136023456Y-101515000D01*
X135756544Y-101515000D01*
X135494761Y-101567072D01*
X135248167Y-101669215D01*
X135026238Y-101817503D01*
X134858741Y-101985000D01*
X133178426Y-101985000D01*
X133256185Y-101921185D01*
X133335537Y-101824494D01*
X133394502Y-101714180D01*
X133430812Y-101594482D01*
X133443072Y-101470000D01*
X133440000Y-101255750D01*
X133281250Y-101097000D01*
X132207000Y-101097000D01*
X132207000Y-101117000D01*
X131953000Y-101117000D01*
X131953000Y-101097000D01*
X130878750Y-101097000D01*
X130720000Y-101255750D01*
X130716928Y-101470000D01*
X130729188Y-101594482D01*
X130765498Y-101714180D01*
X130824463Y-101824494D01*
X130903815Y-101921185D01*
X130981574Y-101985000D01*
X129764981Y-101985000D01*
X129709494Y-101939463D01*
X129673082Y-101920000D01*
X129709494Y-101900537D01*
X129806185Y-101821185D01*
X129885537Y-101724494D01*
X129944502Y-101614180D01*
X129980812Y-101494482D01*
X129993072Y-101370000D01*
X129993072Y-100570000D01*
X129983224Y-100470000D01*
X130716928Y-100470000D01*
X130720000Y-100684250D01*
X130878750Y-100843000D01*
X131953000Y-100843000D01*
X131953000Y-99993750D01*
X132207000Y-99993750D01*
X132207000Y-100843000D01*
X133281250Y-100843000D01*
X133440000Y-100684250D01*
X133443072Y-100470000D01*
X133430812Y-100345518D01*
X133394502Y-100225820D01*
X133335537Y-100115506D01*
X133256185Y-100018815D01*
X133159494Y-99939463D01*
X133049180Y-99880498D01*
X132929482Y-99844188D01*
X132805000Y-99831928D01*
X132365750Y-99835000D01*
X132207000Y-99993750D01*
X131953000Y-99993750D01*
X131794250Y-99835000D01*
X131355000Y-99831928D01*
X131230518Y-99844188D01*
X131110820Y-99880498D01*
X131000506Y-99939463D01*
X130903815Y-100018815D01*
X130824463Y-100115506D01*
X130765498Y-100225820D01*
X130729188Y-100345518D01*
X130716928Y-100470000D01*
X129983224Y-100470000D01*
X129980812Y-100445518D01*
X129944502Y-100325820D01*
X129915000Y-100270627D01*
X129915000Y-99775761D01*
X129963254Y-99771008D01*
X130129850Y-99720472D01*
X130283386Y-99638405D01*
X130417962Y-99527962D01*
X130423342Y-99521406D01*
X130488815Y-99601185D01*
X130585506Y-99680537D01*
X130695820Y-99739502D01*
X130815518Y-99775812D01*
X130940000Y-99788072D01*
X131154250Y-99785000D01*
X131313000Y-99626250D01*
X131313000Y-98552000D01*
X131567000Y-98552000D01*
X131567000Y-99626250D01*
X131725750Y-99785000D01*
X131940000Y-99788072D01*
X132064482Y-99775812D01*
X132184180Y-99739502D01*
X132294494Y-99680537D01*
X132391185Y-99601185D01*
X132470537Y-99504494D01*
X132529502Y-99394180D01*
X132565812Y-99274482D01*
X132578072Y-99150000D01*
X132575000Y-98710750D01*
X132504250Y-98640000D01*
X134401928Y-98640000D01*
X134414188Y-98764482D01*
X134450498Y-98884180D01*
X134509463Y-98994494D01*
X134588815Y-99091185D01*
X134685506Y-99170537D01*
X134795820Y-99229502D01*
X134915518Y-99265812D01*
X135040000Y-99278072D01*
X135604250Y-99275000D01*
X135763000Y-99116250D01*
X135763000Y-97917000D01*
X136017000Y-97917000D01*
X136017000Y-99116250D01*
X136175750Y-99275000D01*
X136740000Y-99278072D01*
X136864482Y-99265812D01*
X136984180Y-99229502D01*
X137094494Y-99170537D01*
X137191185Y-99091185D01*
X137270537Y-98994494D01*
X137329502Y-98884180D01*
X137365812Y-98764482D01*
X137378072Y-98640000D01*
X137375000Y-98075750D01*
X137216250Y-97917000D01*
X136017000Y-97917000D01*
X135763000Y-97917000D01*
X134563750Y-97917000D01*
X134405000Y-98075750D01*
X134401928Y-98640000D01*
X132504250Y-98640000D01*
X132416250Y-98552000D01*
X131567000Y-98552000D01*
X131313000Y-98552000D01*
X131293000Y-98552000D01*
X131293000Y-98298000D01*
X131313000Y-98298000D01*
X131313000Y-97223750D01*
X131567000Y-97223750D01*
X131567000Y-98298000D01*
X132416250Y-98298000D01*
X132575000Y-98139250D01*
X132578072Y-97700000D01*
X132565812Y-97575518D01*
X132529502Y-97455820D01*
X132470537Y-97345506D01*
X132391185Y-97248815D01*
X132294494Y-97169463D01*
X132184180Y-97110498D01*
X132064482Y-97074188D01*
X131940000Y-97061928D01*
X131725750Y-97065000D01*
X131567000Y-97223750D01*
X131313000Y-97223750D01*
X131154250Y-97065000D01*
X130940000Y-97061928D01*
X130815518Y-97074188D01*
X130695820Y-97110498D01*
X130585506Y-97169463D01*
X130488815Y-97248815D01*
X130423342Y-97328594D01*
X130417962Y-97322038D01*
X130283386Y-97211595D01*
X130129850Y-97129528D01*
X129963254Y-97078992D01*
X129790000Y-97061928D01*
X129290000Y-97061928D01*
X129116746Y-97078992D01*
X128950150Y-97129528D01*
X128796614Y-97211595D01*
X128662038Y-97322038D01*
X128585747Y-97415000D01*
X113448355Y-97415000D01*
X112973355Y-96940000D01*
X134401928Y-96940000D01*
X134405000Y-97504250D01*
X134563750Y-97663000D01*
X135763000Y-97663000D01*
X135763000Y-96463750D01*
X136017000Y-96463750D01*
X136017000Y-97663000D01*
X137216250Y-97663000D01*
X137375000Y-97504250D01*
X137378072Y-96940000D01*
X137365812Y-96815518D01*
X137329502Y-96695820D01*
X137270537Y-96585506D01*
X137191185Y-96488815D01*
X137094494Y-96409463D01*
X136984180Y-96350498D01*
X136864482Y-96314188D01*
X136740000Y-96301928D01*
X136175750Y-96305000D01*
X136017000Y-96463750D01*
X135763000Y-96463750D01*
X135604250Y-96305000D01*
X135040000Y-96301928D01*
X134915518Y-96314188D01*
X134795820Y-96350498D01*
X134685506Y-96409463D01*
X134588815Y-96488815D01*
X134509463Y-96585506D01*
X134450498Y-96695820D01*
X134414188Y-96815518D01*
X134401928Y-96940000D01*
X112973355Y-96940000D01*
X112770000Y-96736645D01*
X112770000Y-95299607D01*
X112774886Y-95250000D01*
X112770000Y-95200392D01*
X112770000Y-94934253D01*
X112862962Y-94857962D01*
X112973405Y-94723386D01*
X113055472Y-94569850D01*
X113106008Y-94403254D01*
X113123072Y-94230000D01*
X113123072Y-93730000D01*
X113106008Y-93556746D01*
X113055472Y-93390150D01*
X112973405Y-93236614D01*
X112862962Y-93102038D01*
X112856406Y-93096658D01*
X112936185Y-93031185D01*
X113015537Y-92934494D01*
X113074502Y-92824180D01*
X113110812Y-92704482D01*
X113123072Y-92580000D01*
X113120000Y-92365750D01*
X112961250Y-92207000D01*
X111887000Y-92207000D01*
X111887000Y-92227000D01*
X111633000Y-92227000D01*
X111633000Y-92207000D01*
X110558750Y-92207000D01*
X110400000Y-92365750D01*
X110396928Y-92580000D01*
X110409188Y-92704482D01*
X110445498Y-92824180D01*
X110504463Y-92934494D01*
X110583815Y-93031185D01*
X110663594Y-93096658D01*
X110657038Y-93102038D01*
X110546595Y-93236614D01*
X110464528Y-93390150D01*
X110413992Y-93556746D01*
X110405303Y-93644969D01*
X110403508Y-93626745D01*
X110352972Y-93460149D01*
X110270905Y-93306613D01*
X110230000Y-93256770D01*
X110230000Y-92124607D01*
X110234886Y-92075000D01*
X110230000Y-92025392D01*
X110230000Y-91580000D01*
X110396928Y-91580000D01*
X110400000Y-91794250D01*
X110558750Y-91953000D01*
X111633000Y-91953000D01*
X111633000Y-91103750D01*
X111887000Y-91103750D01*
X111887000Y-91953000D01*
X112961250Y-91953000D01*
X113120000Y-91794250D01*
X113123072Y-91580000D01*
X113110812Y-91455518D01*
X113074502Y-91335820D01*
X113015537Y-91225506D01*
X112936185Y-91128815D01*
X112839494Y-91049463D01*
X112729180Y-90990498D01*
X112609482Y-90954188D01*
X112485000Y-90941928D01*
X112045750Y-90945000D01*
X111887000Y-91103750D01*
X111633000Y-91103750D01*
X111474250Y-90945000D01*
X111035000Y-90941928D01*
X110910518Y-90954188D01*
X110790820Y-90990498D01*
X110680506Y-91049463D01*
X110583815Y-91128815D01*
X110504463Y-91225506D01*
X110445498Y-91335820D01*
X110409188Y-91455518D01*
X110396928Y-91580000D01*
X110230000Y-91580000D01*
X110230000Y-90219608D01*
X110234886Y-90170000D01*
X110215385Y-89972005D01*
X110157632Y-89781620D01*
X110063847Y-89606160D01*
X109937633Y-89452367D01*
X109899100Y-89420744D01*
X109367414Y-88889058D01*
X109367953Y-88887756D01*
X109450000Y-88475279D01*
X109450000Y-88054721D01*
X124230000Y-88054721D01*
X124230000Y-88475279D01*
X124312047Y-88887756D01*
X124472988Y-89276302D01*
X124706637Y-89625983D01*
X125004017Y-89923363D01*
X125353698Y-90157012D01*
X125742244Y-90317953D01*
X126154721Y-90400000D01*
X126575279Y-90400000D01*
X126987756Y-90317953D01*
X127376302Y-90157012D01*
X127725983Y-89923363D01*
X128023363Y-89625983D01*
X128257012Y-89276302D01*
X128417953Y-88887756D01*
X128500000Y-88475279D01*
X128500000Y-88054721D01*
X128417953Y-87642244D01*
X128257012Y-87253698D01*
X128023363Y-86904017D01*
X127725983Y-86606637D01*
X127376302Y-86372988D01*
X126987756Y-86212047D01*
X126575279Y-86130000D01*
X126154721Y-86130000D01*
X125742244Y-86212047D01*
X125353698Y-86372988D01*
X125004017Y-86606637D01*
X124706637Y-86904017D01*
X124472988Y-87253698D01*
X124312047Y-87642244D01*
X124230000Y-88054721D01*
X109450000Y-88054721D01*
X109367953Y-87642244D01*
X109207012Y-87253698D01*
X108973363Y-86904017D01*
X108675983Y-86606637D01*
X108326302Y-86372988D01*
X107937756Y-86212047D01*
X107525279Y-86130000D01*
X107104721Y-86130000D01*
X106692244Y-86212047D01*
X106303698Y-86372988D01*
X105954017Y-86606637D01*
X105656637Y-86904017D01*
X105422988Y-87253698D01*
X105262047Y-87642244D01*
X105180000Y-88054721D01*
X95910000Y-88054721D01*
X95910000Y-85122279D01*
X95924722Y-84972131D01*
X95958953Y-84858754D01*
X96014555Y-84754181D01*
X96089407Y-84662404D01*
X96180664Y-84586909D01*
X96284844Y-84530581D01*
X96397976Y-84495560D01*
X96546022Y-84480000D01*
X137127721Y-84480000D01*
X137277869Y-84494722D01*
G37*
%TD.AperFunction*%
%TD*%
M02*
