%TF.GenerationSoftware,KiCad,Pcbnew,(5.1.9)-1*%
%TF.CreationDate,2021-03-21T16:20:23+00:00*%
%TF.ProjectId,hp5354a-ocxo,68703533-3534-4612-9d6f-63786f2e6b69,rev?*%
%TF.SameCoordinates,Original*%
%TF.FileFunction,Soldermask,Bot*%
%TF.FilePolarity,Negative*%
%FSLAX46Y46*%
G04 Gerber Fmt 4.6, Leading zero omitted, Abs format (unit mm)*
G04 Created by KiCad (PCBNEW (5.1.9)-1) date 2021-03-21 16:20:23*
%MOMM*%
%LPD*%
G01*
G04 APERTURE LIST*
%ADD10C,1.440000*%
%ADD11C,3.000000*%
%ADD12R,1.700000X1.700000*%
%ADD13R,0.900000X0.800000*%
G04 APERTURE END LIST*
D10*
%TO.C,RV1*%
X135890000Y-102870000D03*
X133350000Y-105410000D03*
X135890000Y-107950000D03*
%TD*%
D11*
%TO.C,O1*%
X107315000Y-107315000D03*
X116840000Y-107315000D03*
X126365000Y-107315000D03*
X126365000Y-88265000D03*
X107315000Y-88265000D03*
%TD*%
%TO.C,L1*%
G36*
G01*
X108657500Y-96700001D02*
X108657500Y-93799999D01*
G75*
G02*
X108907499Y-93550000I249999J0D01*
G01*
X109532501Y-93550000D01*
G75*
G02*
X109782500Y-93799999I0J-249999D01*
G01*
X109782500Y-96700001D01*
G75*
G02*
X109532501Y-96950000I-249999J0D01*
G01*
X108907499Y-96950000D01*
G75*
G02*
X108657500Y-96700001I0J249999D01*
G01*
G37*
G36*
G01*
X104382500Y-96700001D02*
X104382500Y-93799999D01*
G75*
G02*
X104632499Y-93550000I249999J0D01*
G01*
X105257501Y-93550000D01*
G75*
G02*
X105507500Y-93799999I0J-249999D01*
G01*
X105507500Y-96700001D01*
G75*
G02*
X105257501Y-96950000I-249999J0D01*
G01*
X104632499Y-96950000D01*
G75*
G02*
X104382500Y-96700001I0J249999D01*
G01*
G37*
%TD*%
D12*
%TO.C,J4*%
X97790000Y-105410000D03*
%TD*%
D13*
%TO.C,U1*%
X126905000Y-101920000D03*
X128905000Y-102870000D03*
X128905000Y-100970000D03*
%TD*%
D12*
%TO.C,J3*%
X135890000Y-97790000D03*
%TD*%
%TO.C,J2*%
X97790000Y-97790000D03*
%TD*%
%TO.C,J1*%
X97790000Y-90170000D03*
%TD*%
%TO.C,C6*%
G36*
G01*
X132555000Y-101470000D02*
X131605000Y-101470000D01*
G75*
G02*
X131355000Y-101220000I0J250000D01*
G01*
X131355000Y-100720000D01*
G75*
G02*
X131605000Y-100470000I250000J0D01*
G01*
X132555000Y-100470000D01*
G75*
G02*
X132805000Y-100720000I0J-250000D01*
G01*
X132805000Y-101220000D01*
G75*
G02*
X132555000Y-101470000I-250000J0D01*
G01*
G37*
G36*
G01*
X132555000Y-103370000D02*
X131605000Y-103370000D01*
G75*
G02*
X131355000Y-103120000I0J250000D01*
G01*
X131355000Y-102620000D01*
G75*
G02*
X131605000Y-102370000I250000J0D01*
G01*
X132555000Y-102370000D01*
G75*
G02*
X132805000Y-102620000I0J-250000D01*
G01*
X132805000Y-103120000D01*
G75*
G02*
X132555000Y-103370000I-250000J0D01*
G01*
G37*
%TD*%
%TO.C,C5*%
G36*
G01*
X130940000Y-98900000D02*
X130940000Y-97950000D01*
G75*
G02*
X131190000Y-97700000I250000J0D01*
G01*
X131690000Y-97700000D01*
G75*
G02*
X131940000Y-97950000I0J-250000D01*
G01*
X131940000Y-98900000D01*
G75*
G02*
X131690000Y-99150000I-250000J0D01*
G01*
X131190000Y-99150000D01*
G75*
G02*
X130940000Y-98900000I0J250000D01*
G01*
G37*
G36*
G01*
X129040000Y-98900000D02*
X129040000Y-97950000D01*
G75*
G02*
X129290000Y-97700000I250000J0D01*
G01*
X129790000Y-97700000D01*
G75*
G02*
X130040000Y-97950000I0J-250000D01*
G01*
X130040000Y-98900000D01*
G75*
G02*
X129790000Y-99150000I-250000J0D01*
G01*
X129290000Y-99150000D01*
G75*
G02*
X129040000Y-98900000I0J250000D01*
G01*
G37*
%TD*%
%TO.C,C4*%
G36*
G01*
X130335000Y-107445000D02*
X131285000Y-107445000D01*
G75*
G02*
X131535000Y-107695000I0J-250000D01*
G01*
X131535000Y-108195000D01*
G75*
G02*
X131285000Y-108445000I-250000J0D01*
G01*
X130335000Y-108445000D01*
G75*
G02*
X130085000Y-108195000I0J250000D01*
G01*
X130085000Y-107695000D01*
G75*
G02*
X130335000Y-107445000I250000J0D01*
G01*
G37*
G36*
G01*
X130335000Y-105545000D02*
X131285000Y-105545000D01*
G75*
G02*
X131535000Y-105795000I0J-250000D01*
G01*
X131535000Y-106295000D01*
G75*
G02*
X131285000Y-106545000I-250000J0D01*
G01*
X130335000Y-106545000D01*
G75*
G02*
X130085000Y-106295000I0J250000D01*
G01*
X130085000Y-105795000D01*
G75*
G02*
X130335000Y-105545000I250000J0D01*
G01*
G37*
%TD*%
%TO.C,C3*%
G36*
G01*
X112235000Y-92580000D02*
X111285000Y-92580000D01*
G75*
G02*
X111035000Y-92330000I0J250000D01*
G01*
X111035000Y-91830000D01*
G75*
G02*
X111285000Y-91580000I250000J0D01*
G01*
X112235000Y-91580000D01*
G75*
G02*
X112485000Y-91830000I0J-250000D01*
G01*
X112485000Y-92330000D01*
G75*
G02*
X112235000Y-92580000I-250000J0D01*
G01*
G37*
G36*
G01*
X112235000Y-94480000D02*
X111285000Y-94480000D01*
G75*
G02*
X111035000Y-94230000I0J250000D01*
G01*
X111035000Y-93730000D01*
G75*
G02*
X111285000Y-93480000I250000J0D01*
G01*
X112235000Y-93480000D01*
G75*
G02*
X112485000Y-93730000I0J-250000D01*
G01*
X112485000Y-94230000D01*
G75*
G02*
X112235000Y-94480000I-250000J0D01*
G01*
G37*
%TD*%
%TO.C,C2*%
G36*
G01*
X102710000Y-92580000D02*
X101760000Y-92580000D01*
G75*
G02*
X101510000Y-92330000I0J250000D01*
G01*
X101510000Y-91830000D01*
G75*
G02*
X101760000Y-91580000I250000J0D01*
G01*
X102710000Y-91580000D01*
G75*
G02*
X102960000Y-91830000I0J-250000D01*
G01*
X102960000Y-92330000D01*
G75*
G02*
X102710000Y-92580000I-250000J0D01*
G01*
G37*
G36*
G01*
X102710000Y-94480000D02*
X101760000Y-94480000D01*
G75*
G02*
X101510000Y-94230000I0J250000D01*
G01*
X101510000Y-93730000D01*
G75*
G02*
X101760000Y-93480000I250000J0D01*
G01*
X102710000Y-93480000D01*
G75*
G02*
X102960000Y-93730000I0J-250000D01*
G01*
X102960000Y-94230000D01*
G75*
G02*
X102710000Y-94480000I-250000J0D01*
G01*
G37*
%TD*%
%TO.C,C1*%
G36*
G01*
X107185000Y-91600000D02*
X107185000Y-92550000D01*
G75*
G02*
X106935000Y-92800000I-250000J0D01*
G01*
X106435000Y-92800000D01*
G75*
G02*
X106185000Y-92550000I0J250000D01*
G01*
X106185000Y-91600000D01*
G75*
G02*
X106435000Y-91350000I250000J0D01*
G01*
X106935000Y-91350000D01*
G75*
G02*
X107185000Y-91600000I0J-250000D01*
G01*
G37*
G36*
G01*
X109085000Y-91600000D02*
X109085000Y-92550000D01*
G75*
G02*
X108835000Y-92800000I-250000J0D01*
G01*
X108335000Y-92800000D01*
G75*
G02*
X108085000Y-92550000I0J250000D01*
G01*
X108085000Y-91600000D01*
G75*
G02*
X108335000Y-91350000I250000J0D01*
G01*
X108835000Y-91350000D01*
G75*
G02*
X109085000Y-91600000I0J-250000D01*
G01*
G37*
%TD*%
M02*
